<?xml version="1.0" encoding="UTF-8"?> <svg xmlns="http://www.w3.org/2000/svg" width="739" height="348" viewBox="0 0 739 348" fill="none"> <path d="M739 219.93C739 181.433 707.764 150.177 669.29 150.177C665.862 150.177 662.434 150.559 659.386 150.94C646.435 103.295 603.39 68.609 552.345 68.609C528.728 68.609 506.634 76.2322 488.73 88.8105C481.874 38.4973 438.829 0 387.023 0C347.406 0 313.504 22.1073 295.981 54.506C276.935 40.7842 253.698 32.7798 228.557 32.7798C180.941 32.7798 140.181 60.9858 121.897 101.77C112.755 97.9584 102.851 96.0526 92.1845 96.0526C49.9016 96.4337 15.2371 130.738 15.2371 173.428C15.2371 180.289 16.3799 186.769 17.9036 192.867C6.8567 202.015 0 215.356 0 230.602C0 257.665 21.7129 279.391 48.7588 279.391C54.0918 279.391 59.0438 278.629 63.9959 276.723C72.3763 302.642 96.3748 321.319 125.325 321.319C141.324 321.319 155.799 315.601 166.846 306.072C182.845 317.507 202.654 324.368 223.986 324.368C242.27 324.368 259.412 319.413 274.268 310.646C281.887 316.364 291.029 319.794 300.933 319.794C309.694 319.794 318.075 317.126 324.931 312.552C337.502 333.897 360.358 348 386.642 348C412.545 348 435.02 334.278 447.971 313.696C459.018 323.987 473.874 330.085 490.254 330.085C510.824 330.085 528.728 320.175 540.156 304.929C554.631 327.036 579.772 341.52 607.961 341.52C643.006 341.52 673.1 319.032 684.146 287.777C715.383 281.297 739 253.091 739 219.93Z" fill="#F2FBFE"></path> </svg> 