<svg xmlns="http://www.w3.org/2000/svg" width="560" height="365" viewBox="0 0 560 365">
  <path class="uk-text-primary" fill="#6379aa" d="M368.43,134.54c-9.87-11.27-24.33-18.76-37.8-24.94C299,95,260.1,88.35,228.18,105.71c-17.35,9.38-31.72,25.44-37.9,44a61.30054,61.30054,0,0,0-5.49,9.68c-6.38,14.26-5.88,30.42-5.58,45.78.39,26.44,3.39,56.86,23.74,76,10.77,10.08,25,14.27,39,17.56,17.95,4.09,36.41,7.18,55,6.38,29.53-1.39,58.66-14.16,73.72-40.7,14.56-25.63,14.06-57.35,11.67-85.78C380.9,162.77,379.21,146.81,368.43,134.54Z"/>
  <path class="uk-text-warning" fill="#fcde63" d="M386,182.72a3.87,3.87,0,0,0-3,1.69c-.5-.3-1.4,1,.1,4.39.9,2.2-23.1,11.2-31.52,13.27-12.07,2.89-24.24,5.09-36.51,6.78-12.87,1.8-25.84,3-38.71,3.79-32.42.4-64.93.5-97.35.8a4.93981,4.93981,0,0,0,.2-1.79c-.4-2.8.69-17.86.89-18.56a4.35,4.35,0,0,0-4.59-5.19c-.19,0-.49.1-.69.1-1.2-1.39-3.2-2.29-4.89-1.49-.7.4-1.4.8-2.2,1.2a31.1401,31.1401,0,0,0-9.57,1.29c-6.88,1.8-31.22,14.87-32.92,21.65-2.09,8,1.7,15.16,8.58,19.35,7.08,4.29,15.76,5.09,24.14,5.49,14.86,4.78,30.52,6.78,46.28,7.18,2.6.1,5.19.1,7.78.1,3.4.3,6.79.5,10.28.6a532.08377,532.08377,0,0,0,55.06-1.6,574.84784,574.84784,0,0,0,80.5-12.07c9.28-.7,18.75-1.6,27.23-4.59,10-3.59,24-7.18,24-18.65C408.93,195.59,396.27,182.22,386,182.72Zm-274.23-43.1c-1.39,0-2.89,0-4.29.1q-1.49-3.43-2.69-6.88c-1.3-3.69-6.38-3.69-8.08-.4a38.78006,38.78006,0,0,0-3.09,8.38c-2.89.4-5.79.9-8.58,1.5-5.29,1.1-5,9.47.7,8.78a24.57993,24.57993,0,0,1,7.18.1l.3,1.19c-.6.4-1.2.8-1.7,1.2-4.58,3.29.4,10.47,5,7.18,2.5-1.79,4.89-3.59,7.38-5.28a27.99919,27.99919,0,0,1,4,3.19c3.69,3.59,9-1.8,6.39-5.89-.7-1.1-1.4-2.29-2-3.39.8-.6,1.6-1.1,2.4-1.7C118.36,144.91,116,139.62,111.77,139.62ZM476,268.3c-1.4,0-2.9,0-4.29.1q-1.5-3.43-2.7-6.88c-1.29-3.69-6.38-3.69-8.08-.4a39.3091,39.3091,0,0,0-3.09,8.38c-2.89.4-5.78.9-8.58,1.5-5.28,1.1-5,9.47.7,8.78a24.57086,24.57086,0,0,1,7.18.1l.3,1.19c-.6.4-1.19.8-1.69,1.2-4.59,3.29.4,10.47,5,7.18,2.49-1.79,4.88-3.59,7.38-5.28a29.1988,29.1988,0,0,1,4,3.19c3.69,3.59,9-1.8,6.38-5.89-.7-1.1-1.4-2.29-2-3.39.79-.6,1.59-1.1,2.39-1.7C482.55,273.59,480.16,268.4,476,268.3ZM133,343.74c-2.69-.2-5.28-.3-8-.4-.4-1.5-.69-3-1.09-4.49-.9-3.68-6.68-3.78-8.07-.39-.7,1.69-1.3,3.28-2,5-3.49.1-7,.3-10.56.69-4.88.5-5.28,7.57-.5,8.67a47.16186,47.16186,0,0,1,5.68,1.79,4.46986,4.46986,0,0,0,.1,2c-2.09,5.18,5.78,9.07,7.87,3.79l.4-1.1a38.45124,38.45124,0,0,1,4.78,4.19c3.38,3.48,7.86-1.1,7-4.78-.3-1.4-.7-2.79-1-4.19,2-.79,4-1.49,6-2.29C137.38,350.71,137.58,344,133,343.74Zm6.21-326.01A64.27008,64.27008,0,0,1,124.34,1.87c-2.59-3.79-7.88-1.3-8,2.89V15.13l-16.16,3c-4.39.8-5.78,8.38-.5,8.68a4.86978,4.86978,0,0,1,1.2.1h0c5.19.29,10.27.29,15.46.19v6.79c0,4.49,5.59,5,7.78,2a3.73,3.73,0,0,0,4.49-2.39,73.8091,73.8091,0,0,0,2.6-7.48c1.89-.2,3.69-.4,5.58-.7C140.2,24.91,142.4,20.12,139.21,17.73ZM426.19,71.49a33.86888,33.86888,0,0,0-1.69-3.09c2.49-2.59,1.19-8.58-3.2-7.58l-1.19.3c-1.8-2.69-3.79-5.29-5.89-7.88-1.89-2.19-6.28-2.79-7.48.6-1.3,3.59-2.49,7.18-3.49,10.77l-5.69,1.2c-5.38,1.1-5.09,9.08.7,8.78a22.51932,22.51932,0,0,1,2.59-.1c-.1.6-.3,1.09-.39,1.69-1,5.09,6,6.89,8.07,2.9a3.59,3.59,0,0,0,3.6-.7l3.19-2.5a44.13118,44.13118,0,0,1,6,1.6C424.3,78.18,427.69,74.29,426.19,71.49ZM41,214.24a17.00144,17.00144,0,0,0,1.4-1,4.43,4.43,0,0,0-2.8-8,27.06069,27.06069,0,0,0-2.79.1,108.59952,108.59952,0,0,0-9-14.46c-1.79-2.5-6.28-2.6-7.48.6-1.79,4.78-3.59,9.57-5.29,14.36-3.69.1-7.38.2-11.07.2-4.39.1-5.38,6.58-1.59,8.28,2.29,1.1,4.68,2.19,7,3.29-2.2,2.3-1.3,6.88,2.19,7.38,1.8,1.3,4.39,1.4,5.69-.7,1.5-.3,3-.59,4.49-1l17.35,8.08c3.6,1.69,7.09-1.8,6-5.49A94.83848,94.83848,0,0,0,41,214.24Zm517.76-54.96c-1.79-1.9-3.49-3.79-5.29-5.59.7-2.69-1.09-6.18-4.48-5.79-.3,0-.6.1-.8.1-1.3-1.39-2.6-2.69-3.79-4.09-2.1-2.29-6.89-.69-7.09,2.5-.1,1.69-.19,3.29-.29,5a26.9973,26.9973,0,0,0-3.8,2.09c-2.59,1.7-2.19,4.89-.39,6.68-.1.2-.3.4-.4.6-2.6,4.79,4.69,8.48,7.58,4.19a3.74,3.74,0,0,0,4.19-1l10.87,3C559.76,168.15,561.35,162.07,558.76,159.28Z"/>
</svg>
