<svg xmlns="http://www.w3.org/2000/svg" width="200" height="155" viewBox="0 0 200 155">
  <path class="uk-text-warning" fill="#fcde63" d="M147.3,29.06C136.93,9.27,111.63,2.1,91.17,8.4,69.89,15,48.44,35.85,48,59.25,47.79,71,54,82.82,64.9,87.74c1.07.48,2.2.91,3.34,1.33a31.26,31.26,0,0,1,10.59,23.78c.06,5,5.16,6.8,8.71,5.29q10.18.4,20.39.55c6.17.09,12.22-.25,15.64-6.18,3.08-5.32,1.84-11,1.75-16.82-.08-4.94,2.39-8.63,5.75-12,7.48-7.57,15.66-13.29,19.12-23.89A40.33,40.33,0,0,0,147.3,29.06ZM74.7,40.55a12.88,12.88,0,0,0-1.26-.47,19.12,19.12,0,0,1,1.8-2.36A20.21,20.21,0,0,0,74.7,40.55Zm68.38,1.68a14.25,14.25,0,0,1-1.35-2,.83.83,0,0,1-.08-.12,36,36,0,0,0-5.24-12.34c-.61-.9-1.27-1.76-1.95-2.61A31.34,31.34,0,0,1,143.08,42.23Z"/>
  <path class="uk-preserve" fill="#fffcdc" d="M122.32,53.05c-7.88,4.6-14.86,11.55-20.52,19C98,66,92.62,60.68,85.92,58.65c-2-.59-3.09,1.86-1.89,3.25,5.19,6,10.61,11.14,13.42,18.78a4.88,4.88,0,0,0,1,1.65c-.24,4.49-.15,9-.46,13.49-.19,2.69-.42,5.37-.61,8.06-.22,3.1-.88,5.86,1.81,8.11a4,4,0,0,0,4.71.61c5-2.94,3.51-11.75,3.31-16.78a107.42,107.42,0,0,0-1.34-15.58C112,72,119.22,65.8,127.29,59.49,131,56.58,126.25,50.75,122.32,53.05Z"/>
  <path class="uk-text-muted" fill="#dbdbdb" d="M124,120.68h-.59a14,14,0,0,0,5.71-4.22c3.5-4.31,1.24-10.3-4.45-10.73-10.81-.83-21.63-1.43-32.46-1.93-5-.23-11.06-1.35-16,0s-9,7.06-6.83,12.26a6.88,6.88,0,0,0,4.17,4.3,14.79,14.79,0,0,0-3.41,6.24c-1,3.75,1.9,8.2,6.07,8l4-.22c.44,4.16,1.64,8.37,4.61,11,4.32,3.87,11.75,3,17.18,3.32,5.66.28,11.86-.13,16.1-4.39A13.39,13.39,0,0,0,122,133.53l2.05-.2C132,132.54,132.35,120.69,124,120.68Z"/>
  <path class="uk-preserve" fill="#efefef" d="M121.6,113.3c-5.57-1.88-12.28-1.2-18.11-1.23s-12.17-.44-18.1.46c-1.79.27-1.71,3.2,0,3.54,5.89,1.18,12.12,1,18.1,1.25s12.46,1.2,18.11-.43A1.88,1.88,0,0,0,121.6,113.3Z"/>
  <path class="uk-preserve" fill="#efefef" d="M117.76,128.71c-9.21-1.94-20.33-1-29.3,1.88a1.87,1.87,0,0,0,.49,3.66c4.61.4,9.36.3,14,.4a121.43,121.43,0,0,0,14,0C120.11,134.36,121.34,129.46,117.76,128.71Z"/>
</svg>
