<svg xmlns="http://www.w3.org/2000/svg" width="450" height="480" viewBox="0 0 450 480">
  <path class="uk-text-warning" fill="#fcde63" d="M366.12107,396.3705,304.10825,296.024a77.85875,77.85875,0,0,0,4.27561-18.16324q38.95385,25.78429,79.05,49.75714c6.02178,3.60654,14.37718-.73436,17.03721-6.52767,3.26383-6.952-.58749-13.49595-6.52767-17.03721q-42.75622-25.57214-84.12528-53.41261a61.06938,61.06938,0,0,0,.66909-7.76791,77.71311,77.71311,0,0,0-1.90934-17.95108,575.51245,575.51245,0,0,1,114.91951-12.15777c16.62923-.11425,14.08345-25.80059-2.39891-25.70268a591.29128,591.29128,0,0,0-120.99025,13.47962l-.39167-.88124q67.57764-40.7979,137.081-78.332c6.185-3.26383,6.52767-12.81054,2.9701-17.95108-4.42248-6.31551-11.89668-6.26656-17.95108-2.97008q-68.32836,36.76706-134.76367,76.89589c-.73436-1.126-1.46871-2.252-2.21941-3.36174-1.09338-1.63192-2.2194-3.26383-3.37807-4.73256q47.04815-30.321,91.68106-64.19958c13.2022-10.02-1.77878-31.00641-15.03-20.97012q-46.02,34.923-94.65114,66.12524a106.7413,106.7413,0,0,0-10.06892-7.37625,268.336,268.336,0,0,1,41.61387-79.84967c9.98731-13.18588-10.00366-29.505-20.07258-16.20493a297.00912,297.00912,0,0,0-44.91032,84.94124,95.85858,95.85858,0,0,0-29.37449-4.61833A602.01473,602.01473,0,0,1,203.011,23.57555c1.175-16.44971-24.26659-20.79061-25.45789-4.194A645.78221,645.78221,0,0,0,178.875,127.74076a69.66687,69.66687,0,0,0-17.69,3.99819c-8.845-12.50048-18.24482-24.69089-26.11066-37.37088A641.34385,641.34385,0,0,1,90.32722,9.36156C83.79956-5.81526,59.5656,3.07868,66.17486,18.28814a688.31441,688.31441,0,0,0,44.06174,85.0718q12.05985,19.71354,25.49053,38.52953c.83228,1.175,1.63192,2.33364,2.51316,3.4923A84.40236,84.40236,0,0,0,124.369,160.49332L49.30085,65.84218c-10.28107-12.95741-31.30015,2.00726-20.97012,15.03L111.4279,185.60851a114.00881,114.00881,0,0,0-3.26383,11.42342,717.75029,717.75029,0,0,0-90.21233-59.14065c-14.52406-8.029-24.98464,15.55216-10.52586,23.56488a671.71205,671.71205,0,0,1,95.95667,64.6402v.57118a110.85594,110.85594,0,0,0,2.36628,30.2231Q63.727,254.965,21.93361,249.64493c-16.466-2.08888-20.72533,23.35269-4.21034,25.45787q48.30473,6.1197,96.95214,7.83321a125.037,125.037,0,0,0,11.79876,19.87675q1.90934,3.42705,4.01451,6.69087a1162.43939,1162.43939,0,0,0-89.75539,78.07086c-5.05894,4.89575-2.97009,14.09976,1.92566,18.1469,5.90754,4.89575,13.13693,2.87217,18.13059-1.92564A1082.94331,1082.94331,0,0,1,147.069,329.26613a58.341,58.341,0,0,0,31.57757,14.88305c-12.631,29.554-21.01907,61.44163-42.185,85.88776-10.85224,12.5331,9.18769,28.787,20.07258,16.22125,23.94021-27.74258,31.28383-63.49787,46.55857-95.58135a103.12093,103.12093,0,0,0,37.19138-.78331,1120.78642,1120.78642,0,0,1-3.26383,114.91954c-1.32185,16.44969,24.11972,20.77431,25.4579,4.194a1186.5005,1186.5005,0,0,0,3.36175-128.595,86.88329,86.88329,0,0,0,22.84682-18.457c.26112-.29373.50589-.6038.75069-.89756l55.79523,90.31024C353.947,425.54917,374.86814,410.45394,366.12107,396.3705Z"/>
  <path class="uk-text-primary" fill="#6379aa" d="M153.74349,198.12531c-1.63192-3.16593.29375-7.0662,4.38986-8.796,3.10064-1.30554,7.4089-1.06075,9.155,1.534a9.2693,9.2693,0,0,1,.97915,7.73528,4.66729,4.66729,0,0,1-2.48051,5.15686C160.49962,207.06821,152.99281,202.67835,153.74349,198.12531Zm104.44264-4.89575a8.46966,8.46966,0,0,0-7.73529-4.5041,8.61652,8.61652,0,0,0-7.04989,4.69992,8.1596,8.1596,0,0,0-.65276,6.2176,4.56937,4.56937,0,0,0,2.93745,4.243,8.55128,8.55128,0,0,0,5.38533,1.82775c3.13328,0,7.16411-2.05622,7.39258-5.54852a5.00983,5.00983,0,0,0,.6038-1.51768,8.029,8.029,0,0,0-.94649-5.46691Zm9.563,51.079c-5.059,26.11066-14.68725,58.58581-44.24125,65.57041-32.50777,7.67-49.96928-32.63833-59.54863-56.807-2.17046-5.4506-11.04807-2.93746-8.845,2.57843,10.85225,27.33459,29.7988,69.09532,65.78254,64.0364s49.72449-41.875,55.77891-73.0609c1.06074-5.8586-7.84951-8.19223-8.99187-2.3663Z"/>
</svg>
