<svg xmlns="http://www.w3.org/2000/svg" width="315" height="120" viewBox="0 0 315 120">
  <path class="uk-preserve" fill="#efefef" d="M272,80.1a32.82,32.82,0,0,0-3.8-2.7,7.4,7.4,0,0,0,.2-7.6,4.55,4.55,0,0,0,.4-6c-5.3-7.2-14.6-11.6-22.1-16-7.8-4.6-15.7-8.8-23.8-12.8A342.52,342.52,0,0,0,172,15,345.83,345.83,0,0,0,63.63-.3c-10.3.2-20.7,1-30.9,2.2-10,1.2-20.5,2.3-30,5.8-2.5.9-1.6,5.1,1,5.1,2.3,0,4.6-.2,6.8-.4,2.4,1.1,5.5,1,8.1,1.4,5.3.8,10.5,1.8,15.7,2.9,4.2.9,8.3,1.9,12.4,3A68,68,0,0,0,23,30.6a5.72,5.72,0,0,0-1.5,1.6c-3.9,2.4-7.7,4.8-11.4,7.3-4.1,2.6-2.4,9,2.7,8.2,10.5-1.7,21-4,31.5-6,3.3-.6,6.7-1.3,10-1.9a9.38,9.38,0,0,0,1.9,3.2,131.32,131.32,0,0,0-25.9,28.2c-3.1,4.4,2.1,10.8,7,8.1,16.6-9.4,32.5-19.7,50.8-25.4,19.3-6.1,38.7-6.1,58.5-3.3a366.29,366.29,0,0,1,62.1,14.6c9.7,3.2,19.3,6.8,28.7,10.9,9.9,4.2,19.5,10.5,29.7,13.6C273.33,91.4,276.53,83.7,272,80.1ZM38.83,9.6a1.91,1.91,0,0,0-.3.8l-3-.6C36.63,9.7,37.73,9.6,38.83,9.6Zm14,46.8c.9-1.2,1.8-2.3,2.7-3.5a2.28,2.28,0,0,0,1.9,1C55.93,54.7,54.33,55.5,52.83,56.4Z"/>
  <path class="uk-text-warning" fill="#fcde63" d="M311.93,87.4l-5.4-5.1a56.07,56.07,0,0,0-10-12.7c-1.5-1.4-3.7-3.8-5.9-5.1.3-2,.6-4,.8-6,.1-.3.3-.6.4-.9,4-7.6,16.4-26.2,2.4-31.3-2.6-.9-6.2-1-8,1.5-1.3,1.7-2.5,3.5-3.8,5.2-2.8,1.8-5.5,3.7-8.3,5.5-2.1,1.4-4.1,2.8-6.2,4.1-.4.3-1.3,1.1-2.2,1.7a269.56,269.56,0,0,0-23.1-18h0a12.13,12.13,0,0,1-1.4-1,5,5,0,0,0-6.8.8,4.2,4.2,0,0,0-2.2,5.9,5.45,5.45,0,0,0,1.8,3.7c.2.2.4.3.6.5,2.3,4,4.6,8,7,12.1,1.6,2.7,3.1,5.3,4.8,8,.7,1.1,2.7,3.5,3,4.7.3,1.7.6.5-1,1.7-5,3.6-10.9,6.3-16.2,9.4-5.7,3.3-11.4,6.6-17,9.9-4.7,2.7-2.1,10.7,3.3,10.1,7.1-.9,14.1-1.7,21.2-2.6,3.2-.4,6.8-1.3,10.1-.9,2.7.3,3.6,2,4.4,4.5,3.2,9.7.8,21.9,12.2,26.7,3.8,1.6,7.1-.4,8.4-4.1,1.4-4.4,2.9-8.7,4.3-13.1l2.4-7.5c.4-1.2.8-2.5,1.2-3.7,1.4.5,3.1.9,3.4,1l6.5,1.8,13.9,3.9C312.73,100.1,316,91.4,311.93,87.4Zm-66.4-10.5v.8c-.6.1-1.2.1-1.8.2A7.68,7.68,0,0,0,245.53,76.9Z"/>
</svg>
