<svg xmlns="http://www.w3.org/2000/svg" width="290" height="200" viewBox="0 0 290 200">
  <path class="uk-text-primary" fill="#6379aa" d="M260.32,46c-4.2-12.2-13.1-19.4-22.9-17.7-10.6,1.8-18.9,12.2-28.1,19-13.5,9.8-26.3-2.1-37.9-10.7A426.65057,426.65057,0,0,1,130.22,2c-3.8-3.6-10.4,2-9.8,8.7,2.2,23.3,7.5,45.5,16.3,65.2,1.9,4.3,4,8.8,6.4,13.3-17.2,1.8-34.3,3.6-51.5,5.3-5.5.6-8.8,10.7-4.5,16.1,39.3,50.3,101.6,40.2,147.8,8,10.3-7.2,20.6-17.8,25.6-33C264.42,73,264.42,58.05,260.32,46Zm-38.9,47.1h0a18.81971,18.81971,0,0,0,1.6,2.3c-.5.5-1,1.1-1.5,1.6v-.2c0-1.25,0-2.55-.1-3.75Z"/>
  <path class="uk-text-warning" fill="#fcde63" d="M282.32,50.55l-18.8,1.2c-3.11.19-5.06,2.55-5.85,5.43-3.23,5.48-3,13.23.45,18.17a1.27007,1.27007,0,0,0,.1.6,2.36,2.36,0,0,0,1.6,2,5.28,5.28,0,0,0,7.382,1.1234q.16379-.12054.318-.2534l18.2-13.4C291.42,61.25,288.62,50.15,282.32,50.55ZM96.12,154.15a153.91006,153.91006,0,0,0-39.7,35c-3.7,4.7,1.4,13.2,5.7,8.8,12.3-12.5,24.6-25.1,37.2-37.1C102.62,157.55,99.82,151.85,96.12,154.15Zm-28.3-29.4c-5.6,1.1-10.9,4.5-16.1,7.2-5.6,3-11.2,6.1-16.8,9.4a210.61156,210.61156,0,0,0-31.6,23.3c-4.8,4.2-.7,12.7,4.4,9.3,10.3-6.8,20.6-13.5,31-20.1,5-3.2,10.1-6.4,15.2-9.4s11.3-5.3,16.1-9.3C73.62,132.25,72.62,123.75,67.82,124.75Zm-14.2-32.9c-13.4-2.5-28.4.3-41.9,5.3-4.6,1.7-4.1,10.7.7,10.1,13.5-1.8,27.4-3.3,40.9-6.9C56.92,99.25,56.92,92.45,53.62,91.85Zm184.5-41.6a10.05,10.05,0,0,0-9.8-.4,10.81,10.81,0,0,0-5.6,8.1c-.3,2.7,1,8.1,4.3,8.3a1.17,1.17,0,0,0,1.1-.5c1-1.6.3-2.8-.2-4.5a5.64,5.64,0,0,1,1.7-6.1,4.66,4.66,0,0,1,5.6-.5c1.9,1.1,2.3,3.1,3.7,4.6a1.89,1.89,0,0,0,3.2-.5C243.62,55.35,240.82,52,238.12,50.25Z"/>
</svg>
