<svg xmlns="http://www.w3.org/2000/svg" width="315" height="270" viewBox="0 0 315 270">
  <path class="uk-text-muted" fill="#dbdbdb" d="M87.28,254l.86.33c1.25.49,2.49,1,3.74,1.45,5.32,2,10.74,3.74,16.21,5.25q8.52,2.37,17.21,4.05c2.86.56,5.74,1.07,8.62,1.54,1.07.17,2.14.32,3.22.48a512.84644,512.84644,0,0,0,58.55.52c6.7-1.55,13.44-3.44,20.1-5.69a142.41233,142.41233,0,0,0,22.82-9.65,190.35052,190.35052,0,0,0,21.92-13.52q5.06-3.56,10-7.28l1.49-1.14,1.52-1.18q2.46-1.93,4.89-3.92c7.07-5.77,13.92-11.81,20.45-18.2A194.68748,194.68748,0,0,0,315,189.63a119.93133,119.93133,0,0,0-11.44-18.38c-.79-1-1.61-2-2.43-3.05a106.62929,106.62929,0,0,0-18.81-22.68,69.55726,69.55726,0,0,0-9.13-7c-.13-.62-.27-1.23-.38-1.85a8.24248,8.24248,0,0,0-1.22.06c-1.6-1.33-3.23-2.62-4.91-3.84a6.14,6.14,0,0,0,2.27-4.84,333.15915,333.15915,0,0,0-7.34-82.6c-.41-3.18-.51-6.54,1.5-8.48,5.09-4.91,9.36-9,10.58-16.44,1.07-6.52-.76-13.5-6.8-16.92-7.63-4.31-15,.31-22,3.52-8.58,4-18.77.24-27.64-1a194.40019,194.40019,0,0,0-29.53-1.76A197.89992,197.89992,0,0,0,126,15.56c-7.42-7.16-19.61-13.3-26.67-2.23-6.55,10.28.4,20.5,8,27.62A203.68008,203.68008,0,0,0,103,117.74c.1,2.66.19,5.32.29,8a9.099,9.099,0,0,0,.24,1.78,9.76,9.76,0,0,0-4.67,5.71c-.27.85-.57,1.67-.89,2.45a323.99981,323.99981,0,0,1-51.74-75.9,11.06,11.06,0,0,0-8.8-5.93,14.76,14.76,0,0,0-7.27-1.3,17.14,17.14,0,0,0-3.87-.74c-7.12-.55-13.22,3.74-16.67,9.8-6.77,11.85-2.27,28.87-.27,41.5,2.14,13.56,5.56,26.12,11.49,38.57.16.34.34.67.5,1,.41,2.07.88,4.14,1.39,6.21,4.44,8,9,16,13.46,23.94,6.38,11.43,13.08,23.22,18.45,35.41q1.58,1.62,3.22,3.2a315.92962,315.92962,0,0,0,21.3,38.72q3.64,1.83,7.36,3.49ZM258.52,25a5.59,5.59,0,0,0,1.38-3.52l2-1.83c-.15.49-.31.94-.45,1.3a15.26,15.26,0,0,1-3.73,5.22A10.42107,10.42107,0,0,1,258.52,25Zm-3.13-10.09c.5-.21,1.15-.51,1.85-.78-.15.1-.28.2-.43.29a2.73025,2.73025,0,0,0-.82.27c-.47.24-.93.5-1.38.76h-.4ZM232,20l1.74.19c-.43.28-.86.55-1.31.8a6.1,6.1,0,0,0-4-.55L225.27,19C227.49,19.33,229.72,19.68,232,20ZM219.75,136.4a6.14014,6.14014,0,0,0,.36,1.3c-1.08.2-2.15.4-3.23.58ZM167,40.59l5-.5-6.5,2.74-.4.19a7.83052,7.83052,0,0,0-1.41-.41c-.05-.15-.1-.31-.16-.46A8.56991,8.56991,0,0,0,167,40.59Zm-27.48,86.8a6.89,6.89,0,0,0,1.12-.64,14.43,14.43,0,0,0,1.64,2.67h0c-1.09-.26-2.18-.55-3.26-.89a9.84581,9.84581,0,0,0,.49-1.14Z"/>
  <path class="uk-preserve" fill="#efefef" d="M214.49,105c-.27-6.21-.34-12.46-1.08-18.64-1.44-12-5.66-23.25-16.12-30.09-9.47-6.2-21.9-5.9-30.18,2.18s-11.48,21.74-13,32.87c-1.91,13.61-1.7,29.19,3.92,42,3.56,8.09,12.69,14.94,21.13,14a24.44,24.44,0,0,0,13.32.93c10.94-2.35,18.44-12.5,20.91-23C214.9,118.6,214.79,111.78,214.49,105ZM43.89,74.25a15.9,15.9,0,0,0-7.52-6.5,16.56009,16.56009,0,0,0-4.53-2,12.28,12.28,0,0,0-6.16-.15,12.69912,12.69912,0,0,0-1.61.31,14.42,14.42,0,0,0-10,10c-1.23,4.76-.51,10.15,3,13.79A12.19991,12.19991,0,0,0,20,91.91c.22.2.43.4.68.59A11.99989,11.99989,0,0,0,26,94.8a12.11989,12.11989,0,0,0,4,1.26,12.49,12.49,0,0,0,8.3-1.69,9.56081,9.56081,0,0,0,1.6-.8c2.54-1.64,5.08-4.23,5.63-7.33C46.31,82,46.1,78,43.89,74.25Zm68.7,187.98q6.31,1.61,12.71,2.85c2.86.56,5.74,1.07,8.62,1.54,1.46.23,2.93.41,4.38.66h.43l1.91.24a323.79629,323.79629,0,0,0,44.8,2.15,215.21311,215.21311,0,0,0,30.35-7.8,142.41238,142.41238,0,0,0,22.82-9.65,190.35183,190.35183,0,0,0,21.92-13.52q5.06-3.56,10-7.28l1.49-1.14,1.52-1.18q2.46-1.93,4.89-3.92c1.6-1.3,3.18-2.63,4.76-4a76.2598,76.2598,0,0,0-12.22-13,106.09007,106.09007,0,0,0-31.86-18.62c-11.9-4.56-24.57-6.59-37.2-8-12.11-1.3-26.06-2.55-37.63,1.93-13.29,5.15-23,16.68-31.32,27.77a124.62115,124.62115,0,0,0-11.17,17.25l-.2.09c-4.79,2.27-8.13,7.63-9.21,13.18-2.71,4.65-3.68,10.58-2.16,15.29A21.87975,21.87975,0,0,0,112.59,262.23Z"/>
  <path class="uk-text-primary" fill="#6379aa" d="M116.08,18.29a7.54,7.54,0,0,0-9,1.14c-2.37,2.53-2.59,7.13-.79,10.06a6.51992,6.51992,0,0,0,1.57,2,7.00016,7.00016,0,0,0,.6,2.08c1.53,3.25,5.85,2.46,7.56,0a7.64009,7.64009,0,0,0,.8-1.74c.19-.49,0-.14-.09,0l.29-.54c-.14.26,0,.06.12-.1l.31-.08a4.78,4.78,0,0,0,3.43-4.56A9.51,9.51,0,0,0,116.08,18.29Zm137.84-7.51c-2.12.27-3.84,1.1-4.72,3.2a5.32,5.32,0,0,0,1.07,5.68c.86,1,1.7,2,2.57,3,.09.13.15.27.25.4a9.00022,9.00022,0,0,0,1.82,1.78l.5.47A5.65,5.65,0,0,0,259,26.76h0c3.29,1,6.15-1.67,6.34-4.87C265.74,15.85,260,10,253.92,10.78ZM170.59,53.33a5.58,5.58,0,0,0-11.15-.47247q-.01.23613,0,.47247a5.88,5.88,0,0,0,1.28,3.61,3.90988,3.90988,0,0,0,.76,1.08,4.52992,4.52992,0,0,0,3.07,1.28,4.44989,4.44989,0,0,0,2.28-.67A5.57,5.57,0,0,0,170.59,53.33ZM209,51.58a2.60728,2.60728,0,0,0-.14-.6,5.66,5.66,0,0,0-9.5-2.53A5.8,5.8,0,0,0,197.88,54a5.7,5.7,0,0,0,4,4l.6.13a5.39,5.39,0,0,0,5.17-1.37A5.53,5.53,0,0,0,209,51.58Zm-5.72,74.7a1.63038,1.63038,0,0,0-3.26-.07h0c-.82,6.23-5.12,11.94-11.19,13.34a2.48047,2.48047,0,0,0,.15-.41c1.18-4.38.6-9.25.6-13.77v-15c0-9.4.28-19-.34-28.34a16.24,16.24,0,0,0,12-11.11,4.36,4.36,0,0,0-2.86-5.37,60.69971,60.69971,0,0,0-20.63-2.28,5.20905,5.20905,0,0,0-.59.09c-1.43.1-2.86.3-4.23.53-2.53.42-4.16,3.52-3.51,5.9a16.63,16.63,0,0,0,14.72,12.57c-.66,9.23-.45,18.63-.56,27.86-.06,5-.08,10-.12,15,0,4.51-.69,9.42.45,13.8a2.49,2.49,0,0,0,.33.74,14.54,14.54,0,0,1-7.47-3.28c-2.37-2-3.52-4.62-5.54-6.8a.45.45,0,0,0-.75.18c-1.41,8.22,9.89,14.51,16.74,14.11A17.43,17.43,0,0,0,203.28,126.28ZM7.5,63.89a.11.11,0,1,0,.11.11A.11.11,0,0,0,7.5,63.89Zm.06,5.32a8.37993,8.37993,0,0,0,1-3.59,1.29,1.29,0,0,0-1-1.24c-1.71-.35-3.42-.73-5.13-1A1.49,1.49,0,0,0,1.07,65.8c.65.68,1.31,1.36,2,2a3.34,3.34,0,0,0,2.59,2.43h.22a.69.69,0,0,0,.69,0,1.23983,1.23983,0,0,0,.18-.14A1.87991,1.87991,0,0,0,7.56,69.21Zm7.38-14.3a23.52967,23.52967,0,0,1-4.81-3.81,1.53,1.53,0,0,0-2.59,1.08c.21,2.21.15,5.35,2,7a3.07,3.07,0,0,0,4.58-.78h.12a.88.88,0,0,0,.47-1.23,1.22,1.22,0,0,0,.23-2.26Zm13.42-3.98c-1.26-1.62-2.58-3.19-3.9-4.76-.87-1-2.31-.1-2.41,1,0,.51-.1,1-.14,1.56-.14.31-.26.61-.4.91s-.18.41-.28.62a1.36,1.36,0,0,0-.53,2.22c1.47,1.59,4.5,1.4,6.49,1.29a1.69,1.69,0,0,0,1.17-2.84ZM39.59,53a12,12,0,0,0-1.8-5.19,1.56,1.56,0,0,0-2.81.37c-.29.73-.58,1.46-.83,2.2a5.44011,5.44011,0,0,0-.21,1,1.76006,1.76006,0,0,0-.32.87,3.26,3.26,0,0,0,.28,1.63,1.83,1.83,0,0,0,1.7,1.3l2.4-.04A1.71,1.71,0,0,0,39.59,53Z"/>
</svg>
