<svg xmlns="http://www.w3.org/2000/svg" width="290" height="225" viewBox="0 0 290 225">
  <path class="uk-text-danger" fill="#f89ea7" d="M266.63,175.68a112.41,112.41,0,0,0,.77-34.3,159.75,159.75,0,0,0-4.7-25.12c-1.9-6.6-3.21-13.35-5.18-19.93-8.43-28.15-23.18-54.64-48.08-71.26C196.77,16.62,181.9,10.8,167.23,6.88,152.79,3,137.33.92,122.4,2.51c-15.26,1.63-30.29,5.93-42.91,15a109.6,109.6,0,0,0-30.07,33.3C31.32,81,22.85,117.94,24.59,153c.3,6,4.5,13.86,11.24,14.77,5.88.79,10.6.68,16-2a25.69,25.69,0,0,0,10-9.46c4.46-7.24,4.24-15.67,4.41-23.84q.11-4.8.51-9.59c.14-1.59.36-3.18.49-4.77V118c.13-.86.25-1.73.4-2.59A153.65,153.65,0,0,1,72.09,96c.85-2.84,1.78-5.67,2.79-8.46.55-1.51,1.13-3,1.71-4.49.11-.28.19-.5.26-.69.29-.67.58-1.34.88-2a151,151,0,0,1,9.32-17.55q2.51-4.06,5.27-8c.48-.67,2.33-2.94,1.66-2.17.92-1.09,1.85-2.17,2.85-3.2.59-.6,1.22-1.17,1.83-1.77l.54-.5.36-.28c.71-.45,1.45-.87,2.15-1.33l.38-.22c.47-.2,1.31-.58,1.54-.65a45.43,45.43,0,0,1,5.28-1.36c.7-.14,3.31-.56,3.12-.55l4-.49c3.88-.46,7.76-.9,11.65-1.19,3.62-.28,7.25-.44,10.89-.41,1.45,0,2.9.06,4.35.14.83.05,1.65.11,2.48.18l2,.22h.15c.81.15,1.62.28,2.43.44q1.83.34,3.63.78a78.12,78.12,0,0,1,9.45,2.91c.75.28,2.13.85,2,.8,1,.44,2,.88,2.91,1.35A88.82,88.82,0,0,1,176.15,52c2.49,1.51,4.91,3.13,7.27,4.83l1.31,1,.08.07c1.25,1.09,2.57,2.12,3.82,3.22a123.66,123.66,0,0,1,12.53,13.06c.16.18.43.52.63.78l.5.67c.94,1.27,1.85,2.57,2.74,3.88q2.85,4.23,5.36,8.66,2.34,4.13,4.4,8.42c.67,1.43,1.33,2.87,2,4.32a5.12,5.12,0,0,0,.21.51l.8,2a153.87,153.87,0,0,1,6.26,20.89q1.23,5.34,2.12,10.75c.1.61.34,2,.49,2.93.25,1.63.39,3.29.56,4.93,1.54,15.07,1.93,29.87,7.3,44a15.06,15.06,0,0,0,5.64,9.86c5.32,4.77,14.27,5.89,20.21,2.06A17.41,17.41,0,0,0,266.63,175.68Z"/>
  <path class="uk-text-warning" fill="#fcde63" d="M234.86,102.21a103.82,103.82,0,0,0-102.5-75.5c-11.51.4-23.82,2.38-33.35,9l-1.2.55c-24.9,11.9-35.09,38.19-40.14,63.26-6.85,15.23-11.63,31.2-11.53,48.17A15.61,15.61,0,0,0,59.82,162.9a15.12,15.12,0,0,0,14.86-6.62c6.17,2.8,12.79-3.58,11.29-9.89a8.78,8.78,0,0,0-.29-1,5.57,5.57,0,0,0,0-1c.15,2.86.06-2.73,0-4.73.07-.15.24-1.74.3-2.28.2-1.55.69-5.28.66-4.48.12-1.7.16-3.4.34-5.1.08-.39.39-2.33.41-2.44.35-1.89.72-3.78,1.13-5.67a215.48,215.48,0,0,1,7.12-25.55l.68-1.22c2.32-4.08,4.66-8.16,7.08-12.18,1.42-2.36,2.87-4.7,4.44-7,.52-.75,1.06-1.48,1.58-2.23l.24-.31c.52-.63,1.06-1.26,1.61-1.87,1.55-1.69,3.22-3.21,4.93-4.74l.13-.12.34-.19c1-.57,1.89-1.21,2.88-1.76a20.72,20.72,0,0,1,2-1l1-.48q2.37-1-.67.26c1-1.07,5.09-1.61,6.42-1.91.4-.08,1.14-.32,1.84-.49a3.64,3.64,0,0,0,.66,0l2.16-.11c.54,0,1.08.06,1.61.11h1a7.36,7.36,0,0,0,.93.21,60.79,60.79,0,0,1,8.4,2.13c.49.16,1,.35,1.47.52h.07a50.16,50.16,0,0,0,5.08,2.41c3.06,1.27,6.28,2,9.35,3.27a8.07,8.07,0,0,0,4.35.42l1.22.81c.28.23,1.68,1.26,1.78,1.34,1,.8,1.89,1.63,2.81,2.47,1.57,1.45,3.08,3,4.55,4.52,1.13,1.21,2.2,2.45,3.26,3.71.11.16,1.37,1.73,1.59,2q1.5,2.06,2.9,4.19A125.49,125.49,0,0,1,189.81,98c1.19,2.29,2.31,4.62,3.38,7l.55,1.24c-.24-.51,1.2,2.93,1.4,3.42a309.77,309.77,0,0,1,10.41,31.88,139.25,139.25,0,0,1,3.75,16.9c-.05-.16.28,2.9.28,3,.13,1.51.21,3,.25,4.53v2.57c-.17,2.67-.34,5.33-.53,8-.54,7.83,7.4,15.33,15.26,15,9.15-.4,14.16-6.62,15.26-15a78.9,78.9,0,0,0,.59-13.13C241.13,142.84,240.54,122,234.86,102.21Z"/>
  <path class="uk-text-primary" fill="#6379aa" d="M219.48,156.62c-.85-2.43-1.76-4.84-2.71-7.25a122.7,122.7,0,0,0-4.71-29.17c-5.8-19.23-17.47-34.84-33.56-46.66A85.26,85.26,0,0,0,129,57.43c-12.31,0-24.46,3.54-33.43,12.3A32.93,32.93,0,0,0,88.74,79.8c-8.9,9.06-15.1,21-18.67,32.94-.08.27-.15.55-.23.83-6.25,13.68-10.42,28.56-13.63,42.93-2.26,10.11,3.07,22,13.87,24.42,10.16,2.31,21.88-3.06,24.42-13.87,1.9-8.07,4.2-16,6.82-23.86,1.23-3.68,2.53-7.34,3.92-10.95.33-.87.69-1.73,1-2.59a23.61,23.61,0,0,1,1.43-2.91c.17-.35.36-.69.54-1a18.8,18.8,0,0,1-.06-6.35c2.52-17.47,19-31.82,35.75-29,5.73-2.51,12.48.56,15.8,5.52a46.62,46.62,0,0,1,4.29,8A50.75,50.75,0,0,1,168.8,112l.57.76c7.34,10.26,10.13,22.94,6.81,34.37a12.84,12.84,0,0,1,.38,6.51,17.38,17.38,0,0,1-.29,3.74c.23,6.62.16,13.25.09,19.88-.12,10.49,9.31,20.52,20,20a22,22,0,0,0,8.07-1.88,11.42,11.42,0,0,0,5.21-1.78c6.86-4.62,11.87-10.63,12.44-19.24A45.55,45.55,0,0,0,219.48,156.62Z"/>
  <path class="uk-preserve" fill="#efefef" d="M122.53,142.66a41.07,41.07,0,0,0-11.21-3.91,34.83,34.83,0,0,0-11.09-26.56c-11-10.2-27.77-11.68-37.7,1a26.18,26.18,0,0,0-4,7.48,41.4,41.4,0,0,0-4.44-.85A20.09,20.09,0,0,0,40.28,117a19.87,19.87,0,0,0-11.19,5.72,10.33,10.33,0,0,0-1.85,1.3A16.91,16.91,0,0,0,14.73,138.9a26.56,26.56,0,0,0,.28,6.78,22.89,22.89,0,0,0-6.69,4.21C-1.51,158.7-.5,174.63,10,182.48c8.3,6.23,19.71,6.16,29.57,5.19A72.6,72.6,0,0,0,63,181.16a74.59,74.59,0,0,0,23,7.06c10.61,1.47,24.44,1,34-4.32,7.29-4,12.44-10.56,13.71-18.9A22,22,0,0,0,122.53,142.66Z"/>
  <path class="uk-preserve" fill="#efefef" d="M282.48,182a25.94,25.94,0,0,0-11.81-4.25,41.67,41.67,0,0,0-.8-12.66c-2.14-8.61-9.5-13.4-18.21-13.11a41.37,41.37,0,0,0-11.37,1.81c-6.52-10.63-20-16.92-32.3-11.72a28.39,28.39,0,0,0-15.86,18.41,42.36,42.36,0,0,0-16.53,5.16c-9.55,5.43-19.44,19.56-9,29a14,14,0,0,0,5,6c9.7,6.84,21.26,11.45,32.77,10.92,4.65,7.33,13.64,12.19,22.58,11.35,7.67-.72,16-4.11,20.9-10.23.23-.28.44-.57.65-.86a131.79,131.79,0,0,0,13.48.45c7.9-.16,16.38-.59,22.11-6.79C290.3,198.76,290.12,187.53,282.48,182Z"/>
</svg>
