<svg xmlns="http://www.w3.org/2000/svg" width="150" height="350" viewBox="0 0 150 350">
  <path class="uk-text-primary" fill="#6379aa" d="M129.83,15.24c-20.9-18.9-54.2-18.6-77.3-4-25.4,16.1-37.4,47.6-36.1,76.8.8,18.4,6.7,36.4,15.5,52.5A160.34,160.34,0,0,0,48,164.34c2.5,3.1,5.4,7.1,8.8,10l-1.5,1.2c-1.9,1.6-1.4,5.2,1.6,5a24.88,24.88,0,0,1,7.7.7,3.29,3.29,0,0,0,3.5-1.6,2.8,2.8,0,0,0,.2-2.5,1.93,1.93,0,0,0-.8-3.4h.1a334.9,334.9,0,0,0,42.9-33c12.5-11.4,23.5-24.7,30.8-40C154.33,73.24,153.73,36.84,129.83,15.24Z"/>
  <path class="uk-preserve" fill="#efefef" d="M56.23,21.54c-15.3,10.4-26.5,27.3-26.2,46.1.1,4.1,6.3,4.7,7.2.7,3.4-15.7,10-30.5,22.8-40.7C63.63,24.84,60.13,18.94,56.23,21.54Z"/>
  <path class="uk-text-muted" fill="#dbdbdb" d="M89.13,191c-.5-7.2-3.4-14.1-9.4-18.3-4-2.9-14-7.2-18.4-3.5l-.1.1a.35.35,0,0,1-.2-.1c-12.7-.6-26,5.1-36.4,11.9a80.94,80.94,0,0,0-15.5,13.1c-2.8,3.1-8.7,8.8-9.1,13.3-1,12.6,20.2-1.1,23-3.1,10.4-7.3,21.2-17.4,27-29,3.8-1.1,7.7-2,11.6-3a1.37,1.37,0,0,0,1-.8c1.8,1.2,3.8,1.1,6.2,1.9,4.5,1.4,8.6,3.9,10.9,8.1,4.2,7.6,2.3,16.9-1.4,24.2s-8.7,13.9-13.1,20.8a184.33,184.33,0,0,0-12.4,23.2,197.2,197.2,0,0,0-14.3,47.5c-2.6,15.8-5,34.6-.4,50.2.7,2.4,4.8,2.5,5.1-.2,1.2-8.9.6-18.1,1.3-27.1a216,216,0,0,1,4-28.9,201.1,201.1,0,0,1,20.1-53.7C76.63,223.14,90.43,208.74,89.13,191Zm-61.3,5.1a88.81,88.81,0,0,1-12.7,8.2c-1.7.9-6.4,4.2-8.3,3.6-2.9-1,1.8-5.3,3-6.8a75.35,75.35,0,0,1,22.8-18.9,73.48,73.48,0,0,1,14-5.7C40.83,183.54,35.33,190.34,27.83,196.14Z"/>
</svg>
