<svg xmlns="http://www.w3.org/2000/svg" width="280" height="150" viewBox="0 0 280 150">
  <path class="uk-text-warning" fill="#fcde63" d="M256.4,139.4c-2-6.9-4-13.9-6-20.8a114.11,114.11,0,0,1,26.1.9c2.6.4,3.4-2.8,2.2-4.5a122.56,122.56,0,0,0-22.2-24.4A42.23,42.23,0,0,0,266.8,83c1-.9,1.4-2.8.2-3.8-8.7-7.9-17.8-15.5-27.1-22.7,4.1-3,8.1-6,12.2-9,1.9-1.4.6-4.7-1.6-4.7H224.7a38.38,38.38,0,0,0,7.2-12c.9-2.3-1.7-4.3-3.8-3.3-12.7,6-24.4,4.1-37.5,9.2-1.3.5-2.9,9-2.7,10-14.4,16.1-12.1,38.3-17.3,58h0c-.3.6-3.2,5.3-2.8,6.1,7.1,13.7,17.1,23.5,24.2,37.2a2.71,2.71,0,0,0,5.1-1c.6-7,1.1-13.9,1.7-20.9a165.16,165.16,0,0,0,23.3,19.2,2.74,2.74,0,0,0,4.2-2.1l.7-17.8c8.5,5.4,16.9,10.9,25.1,16.7C254,143.4,257,141.6,256.4,139.4Z"/>
  <path class="uk-text-danger" fill="#f89ea7" d="M235.7,111.6c-5.4-4-10.9-7.9-16.3-11.9a32.58,32.58,0,0,0,.2,15.2c.9,3.7-4.4,5.5-6.3,2.3-2.6-4.6-5.1-9.1-7.7-13.7-1.5-2.8-3.1-5.1-2.3-8.4a20.89,20.89,0,0,1,4.5-8.2c.3-4.8,1.3-9.3,3.7-11.5-1-1.8-.5-4.4,2.1-4.8,7.4-1,14.8-2.1,22.2-3.1,3.5-.5,6,4.7,2.3,6.3a35.09,35.09,0,0,0-8,4.7c4,2.3,7.9,4.7,11.7,7.4,2.5,1.8,1.7,6.8-1.9,6.2-4-.6-7.9-1-11.9-1.2l11.9,15.5C242.1,109.2,239.1,114,235.7,111.6Z"/>
  <path class="uk-text-muted" fill="#dbdbdb" d="M214.2,85.3c1.8-4.4,5.3-10.7,4.4-15.2-1-4.8-6.8-5.4-9.4-6.9-4.6-2.4-9.2-4.9-13.7-7.3a1.92,1.92,0,0,0-2.2.5c-1-.4-2.3.4-3.1,2.8a180,180,0,0,0-6,23.5c-.9,5.5-2.5,13.1-1.2,17.5,1.4,4.7,6.4,3,9.7,2.9,3.7-.1,9.1,1.8,13.2-1.1C209.6,99.4,212,90.6,214.2,85.3Z"/>
  <path class="uk-preserve" fill="#efefef" d="M176.2,131.9c18-30.1,7-70.2,29-98.3,1-1.2.3-3.2-.9-4C176.6,12.4,144.1,7,112.1,5c-8.2-.5-16.5-.9-24.7-1.1-3.1-.1-7.6-1-10.5.9s-3.3,5.8-4.2,8.7Q64,42.15,55.1,71a2.82,2.82,0,0,0,.6,2.7c-3.1-.7-4.6,4.3-1.3,5.6q60,24.3,117.8,53.5A2.93,2.93,0,0,0,176.2,131.9Z"/>
  <path class="uk-text-muted" fill="#dbdbdb" d="M57,73.8A626.07,626.07,0,0,1,76.1,9.4a4.21,4.21,0,0,0,.6-7c-4-3.3-12.5.3-16.7,1.1-16.9,3.1-33.8,6-50.6,9.3-3.8.7-8.9,2.3-7,7.3,1,2.7,3.8,5.1,5.6,7.2,2.9,3.4,5.8,6.8,8.8,10.2q17,19.35,35.3,37.5C53.5,76.3,56.4,76,57,73.8Z"/>
  <path class="uk-text-muted" fill="#dbdbdb" d="M121.2,60.9c6-7.3.9-14.8-6.1-18.7-6.7-3.8-16.7-6.3-21.9,1.3a13,13,0,0,0,2.7,17.4,2.8,2.8,0,0,0,1.6,1.8C105.1,66.3,115,68.4,121.2,60.9Z"/>
  <path class="uk-text-muted" fill="#dbdbdb" d="M165.8,78.4c3.5-7,0-15.3-6-19.8-5-3.7-16.3-8.3-20.3-1-4.3,7.6,1.6,19.3,6.3,25.3a2.73,2.73,0,0,0,3.6.7A11.84,11.84,0,0,0,165.8,78.4Z"/>
</svg>
