<svg xmlns="http://www.w3.org/2000/svg" width="260" height="170" viewBox="0 0 260 170">
  <path class="uk-text-muted" fill="#dbdbdb" d="M145.68,72.76a42.73056,42.73056,0,0,0-.2-9.5V63a7.05006,7.05006,0,0,0-1.5-6.1c-6.2-19.4-26.2-33.4-43.6-43.6-11.8-7-25.5-7.2-36.9,1-8.4,6-13.4,14.9-15.9,24.5a18.85039,18.85039,0,0,0-6.7-1.1c-7.4.2-14,4.8-19.4,9.3A65.36006,65.36006,0,0,0,.18,81.26,5.77,5.77,0,0,0,7.88,88a1.61,1.61,0,0,0,.7.4c5.1,1.1,10.8-.1,16-.5,5.5-.5,11-.8,16.6-1.1,11.7-.5,23.4-.7,35.1-.3,11.1.3,22.1,1.4,33.2,1.9,9,.4,19.1.9,28.1-1.3,3.2,5.3,11.3,1.3,11.7-4.1A14.53,14.53,0,0,0,145.68,72.76Zm-108.1,7.6-2.8.3c.7-.2,1.4-.3,2.1-.5A1.85005,1.85005,0,0,1,37.58,80.36Z"/>
  <path class="uk-preserve" fill="#efefef" d="M230.48,32.06c-11.6-6-24.6-6.7-36.4-1.1a36.00006,36.00006,0,0,0-5,2.9c-.9-1.6-1.8-3.3-2.8-4.8A43.08993,43.08993,0,0,0,175,11.56,42.37,42.37,0,0,0,141.58.26c-13.1,1.5-23.5,8.9-32.3,18.7-7.1,7.8-13.9,16.9-16,27.5A36.79994,36.79994,0,0,0,72,52.86,51.35,51.35,0,0,0,50.18,98c.3,5.2,4.3,8.1,9.2,7.3,4-.7,8-1.4,12-2a4.26993,4.26993,0,0,0,2,.6c59.1,4.8,118.4,6.2,177.7,6a6.7,6.7,0,0,0,6.3-5C263.68,77.86,256.08,45.26,230.48,32.06Zm-65.3-15.2a44.28005,44.28005,0,0,0-7.1-3.9,32.32979,32.32979,0,0,1,7.2,3.6C165.28,16.76,165.18,16.76,165.18,16.86Zm2,60.2a1.69989,1.69989,0,0,0-.7.1l1.6-1.6Zm31.3.7,2.1-2.1a20.238,20.238,0,0,0,.4,2.6A4.19011,4.19011,0,0,0,198.48,77.76Zm9.6-34a3.55021,3.55021,0,0,1-1,.2,6.52986,6.52986,0,0,0-.5-2l2.2-.3v1.8A4.87992,4.87992,0,0,1,208.08,43.76Zm25.8,8.9c-.3-.5-.5-1-.8-1.4.6.6,1.2,1.2,1.7,1.8A3.55,3.55,0,0,0,233.88,52.66Zm6.7,15.2a23.62864,23.62864,0,0,0,.8-4.5,36.5594,36.5594,0,0,1,1.8,4.6A7.48019,7.48019,0,0,0,240.58,67.86Zm4.9,28.5h-1.1c.2-.5.4-1.1.6-1.6a3.91983,3.91983,0,0,0,.8-1C245.68,94.66,245.58,95.46,245.48,96.36Z"/>
  <path class="uk-text-primary" fill="#6379aa" d="M86.88,148.14a22.18005,22.18005,0,0,0-6.4,5c-1.9,2.1-4.3,4.6-5.1,7.4-1.2,4.3,3.8,6.3,6.8,4,2.2-1.7,3.6-5,4.7-7.5a22.05007,22.05007,0,0,0,2.1-7.6,1.47,1.47,0,0,0-2.1-1.3Zm-10.1-28.6c-3.6,2.4-7.5,4.8-9.8,8.7-2.9,5,4.7,9.4,7.7,4.5,2.2-3.6,2.7-7.8,3.9-11.7a1.26,1.26,0,0,0-1.8-1.5Zm35.7.6a23.59,23.59,0,0,0-9.3,8.7,4.22,4.22,0,0,0,1.5,5.7c2.1,1.2,4.3.3,5.7-1.5a23.40994,23.40994,0,0,0,4.5-11.5,1.62,1.62,0,0,0-2.4-1.4Zm32.52,1-.2-.2a2.15,2.15,0,0,0-2.9,0c-1.6,1.4-2.7,3.8-3.8,5.6-1.5,2.5-2.9,4.6-2.3,7.7s4.7,3.7,6.8,1.8c2.4-2.2,2.2-5.8,2.5-8.8C145.28,126,146.18,122.14,145,121.14Zm30.48.86c-.4-1.4-2.5-2.2-3.5-.9s-1.8,2.7-2.8,3.9a49.54931,49.54931,0,0,0-3.4,4.6c-3.3,5.1,5.2,10.1,8.1,4.8A17.78,17.78,0,0,0,175.48,122Zm-17.6,28.74a1.37,1.37,0,0,0-2.5-.3c-1.6,2.3-2.9,4.8-4.4,7.2-1.7,2.6-3.3,5-2.7,8.1.5,2.6,3.4,3.1,5.4,2.2C158.68,165.64,159,155.34,157.88,150.74Zm31.7.7c-1.7-2.9-4.3.7-5.2,2.3-2.4,4-7.3,8.4-5.8,13.4.7,2.3,3.5,3.7,5.6,2.3,3-2,3.6-5.3,3.9-8.7a37.24934,37.24934,0,0,1,.4-4.7c.1-.8.1-3.3.8-3.7a.61.61,0,0,0,.3-.9Zm52-29.7a24.58994,24.58994,0,0,0-10.5,10.9c-.9,2-.6,4.3,1.4,5.5a4,4,0,0,0,5.48658-1.37743L237.98,136.74a78.99913,78.99913,0,0,0,5.6-13.4,1.39,1.39,0,0,0-2-1.6Zm-33-.6a2,2,0,0,0-3.4-.9,61.48937,61.48937,0,0,0-3.7,5.2,35.82117,35.82117,0,0,0-3.6,5.9c-2.3,5.3,4.2,9,7.7,4.5A21.15,21.15,0,0,0,208.58,121.14Zm-87,27.8a24.73007,24.73007,0,0,0-5.1,6.9c-1.5,2.7-3.2,5.7-1.4,8.6a4,4,0,0,0,4.3,1.7c3.3-.6,4.3-4.1,5.3-6.9a26.13026,26.13026,0,0,0,1.7-8.3C126.38,148.44,123.28,147.44,121.58,148.94Z"/>
</svg>
