<?xml version="1.0" encoding="UTF-8"?> <svg xmlns="http://www.w3.org/2000/svg" width="816" height="622" viewBox="0 0 816 622" fill="none"> <g filter="url(#filter0_d)"> <path d="M806 369.6C806 335.067 786.38 305.2 757.418 291.2C769.563 265.067 776.103 236.133 776.103 205.333C776.103 92.4 684.545 0 570.563 0C492.085 0 423.883 43.8667 389.315 108.267C365.023 81.2 329.521 65.3333 290.282 65.3333C212.737 65.3333 150.141 127.867 150.141 205.333C150.141 223.067 153.878 239.867 159.484 255.733C148.272 252 135.193 249.2 123.047 249.2C60.4507 248.267 10 298.667 10 361.2C10 423.733 60.4507 474.133 123.047 474.133C140.798 474.133 157.615 469.467 172.563 462C193.117 500.267 237.962 526.4 290.282 526.4C327.653 526.4 360.352 513.333 383.709 491.867C409.869 556.267 473.399 602 547.207 602C634.094 602 705.099 540.4 720.981 458.267C768.629 455.467 806 417.2 806 369.6Z" fill="url(#paint0_linear)"></path> </g> <defs> <filter id="filter0_d" x="0" y="0" width="816" height="622" filterUnits="userSpaceOnUse" color-interpolation-filters="sRGB"> <feFlood flood-opacity="0" result="BackgroundImageFix"></feFlood> <feColorMatrix in="SourceAlpha" type="matrix" values="0 0 0 0 0 0 0 0 0 0 0 0 0 0 0 0 0 0 127 0"></feColorMatrix> <feOffset dy="10"></feOffset> <feGaussianBlur stdDeviation="5"></feGaussianBlur> <feColorMatrix type="matrix" values="0 0 0 0 0.862745 0 0 0 0 0.705882 0 0 0 0 0.705882 0 0 0 0.15 0"></feColorMatrix> <feBlend mode="normal" in2="BackgroundImageFix" result="effect1_dropShadow"></feBlend> <feBlend mode="normal" in="SourceGraphic" in2="effect1_dropShadow" result="shape"></feBlend> </filter> <linearGradient id="paint0_linear" x1="287.501" y1="26.5979" x2="348.7" y2="391.393" gradientUnits="userSpaceOnUse"> <stop stop-color="#F0CDD4"></stop> <stop offset="1" stop-color="#F4D6DB"></stop> </linearGradient> </defs> </svg> 