<?xml version="1.0" encoding="UTF-8"?> <svg xmlns="http://www.w3.org/2000/svg" width="153" height="100" viewBox="0 0 153 100" fill="none"> <path d="M152.459 52.9412C152.459 37.7647 140.948 25.1765 126.149 23.6471C121.685 10 108.883 0 93.7306 0C80.8103 0 69.5345 7.29412 63.7791 17.8824C57.6713 14.7059 50.7414 12.9412 43.459 12.9412C19.4978 12.9412 0 32.4706 0 56.4706C0 80.4706 19.4978 100 43.459 100C56.7317 100 68.5948 94 76.5819 84.5882C81.0452 93.7647 90.4418 100 101.248 100C113.111 100 123.212 92.5882 127.088 82.1177C141.418 80 152.459 67.7647 152.459 52.9412Z" fill="#FAEAED"></path> </svg> 