<?xml version="1.0" encoding="utf-8"?>
<!-- Generator: Adobe Illustrator 23.1.0, SVG Export Plug-In . SVG Version: 6.00 Build 0)  -->
<svg version="1.1" id="Слой_1" xmlns="http://www.w3.org/2000/svg" xmlns:xlink="http://www.w3.org/1999/xlink" x="0px" y="0px"
	 width="250px" height="250px" viewBox="0 0 250 250" style="enable-background:new 0 0 250 250;" xml:space="preserve">
<style type="text/css">
	.st0{fill:#F39DA7;}
	.st1{fill:#EFEFEF;}
	.st2{fill:#6379AA;}
	.st3{fill:#FCDE63;}
</style>
<g>
	<g>
		<path class="st0" d="M152.8,34.8c1.7-0.7,2.3-2.4,3.3-3.8c0.9-1.2,2.2-2.1,3.5-3c1.4-1,2.9-2.1,4.1-3.3c1.2-1.2,2-2.9,3.5-3.8
			s3.4-1.4,5.1-1.9c1.9-0.5,3.5-0.5,5.4,0.1c1.6,0.6,3.2,1.5,4.7,2.4s2.9,1.8,4.2,2.9s2.4,2.3,3.2,3.7c1,1.7,1.4,3.6,2.4,5.3
			c1.8,3.1,4.9,5.1,7.6,7.3c2.6,2.2,4.8,5,6.1,8.2c0.7,1.7,1.2,3.4,0.5,5.2c-0.6,1.5-1.5,3-2.4,4.4c-4.2,6.6-10.2,11.7-17.3,15.1
			c-1.2,0.6-1.5,2.3-0.9,3.4c0.7,1.2,2.2,1.5,3.4,0.9c7-3.3,13.1-8.5,17.6-14.8c2.3-3.1,5.2-7.3,4.9-11.4c-0.4-4.1-2.7-8.2-5.2-11.3
			c-2.4-3-5.7-4.9-8.4-7.6c-1.4-1.4-2.1-3-2.8-4.9c-0.8-2-1.8-3.7-3.2-5.4c-2.6-3-6.2-5.1-9.7-6.9c-2-1-4.1-1.9-6.3-2.1
			c-2.3-0.3-4.5,0.3-6.7,1c-2.3,0.7-4.6,1.5-6.4,3.2c-1.6,1.5-2.7,3.3-4.4,4.7c-1.6,1.2-3.3,2.3-4.8,3.6c-0.8,0.8-1.6,1.6-2.2,2.6
			c-0.4,0.7-0.7,1.5-1.4,1.8c-1.2,0.5-1.5,2.4-0.9,3.4C150.2,35.2,151.6,35.4,152.8,34.8L152.8,34.8z"/>
	</g>
</g>
<g>
	<g>
		<path class="st1" d="M46.9,161.9c1.8-2.3,2.3-5.2,2.9-8c0.8-3.4,2.4-6.4,4-9.5c1.9-3.6,3.8-7.2,5.7-10.8c1.6-3.1,3.1-6.7,5.6-9.3
			c2.2-2.3-1.3-5.8-3.5-3.5c-2.6,2.7-4.2,6.1-5.9,9.4c-1.9,3.6-3.8,7.2-5.7,10.8c-1.8,3.3-3.8,6.7-4.7,10.4
			c-0.3,1.3-0.6,2.6-0.9,3.8c-0.2,0.7-0.3,1.3-0.6,2c-0.1,0.3-0.2,0.5-0.3,0.7c0,0.1-0.5,0.8-0.2,0.5c-0.8,1.1-1,2.5,0,3.5
			C44.2,162.8,46.1,163,46.9,161.9L46.9,161.9z"/>
	</g>
</g>
<g>
	<g>
		<path class="st1" d="M66.9,180.1c-0.3,0.2-0.5,0.2-0.1,0.2c0.3-0.1,0.7-0.2,1-0.3c0.6-0.1,1.2-0.2,1.8-0.4c1.5-0.4,3-1,4.4-1.5
			c3.6-1.3,7.1-3.1,10.7-4.7c6.8-3.1,13.5-6.3,19.3-11c1.1-0.8,0.9-2.7,0-3.5c-1-1-2.5-0.8-3.5,0c-5.7,4.6-12.5,7.6-19.1,10.6
			c-3.4,1.6-6.8,3.2-10.4,4.4c-0.4,0.1-0.9,0.3-1.3,0.4c0.1,0-1.6,0.6-0.8,0.3c-0.5,0.2-1.1,0.3-1.6,0.4c-1.4,0.3-2.7,0.6-3.8,1.6
			c-1,0.9-0.9,2.6,0,3.5C64.4,181.1,65.9,181,66.9,180.1L66.9,180.1z"/>
	</g>
</g>
<path class="st0" d="M139.3,43.3l42.4,41.9L192.5,74l12.3-12.6c6.2-6.5,6.2-16.6,0-23l-18.3-18.8c-6.5-6.7-17.1-6.7-23.5-0.1
	l-12.7,12.7L139.3,43.3z"/>
<polygon class="st1" points="43.4,156.7 61.8,120.6 103.5,162.9 67.6,181 "/>
<path class="st0" d="M43.4,156.7l-3.5,7.9c-2.6,6-1.3,13,3.5,17.4l0,0c4.6,4.3,11.4,5.4,17.1,2.6l7.1-3.5L43.4,156.7z"/>
<polygon class="st2" points="61.8,120.6 103.5,162.9 181.8,85.3 139.3,43.3 "/>
<path class="st3" d="M170.5,51.7l20.9,20.6c3.4,3.4,3.4,8.7,0,12.1l0,0c-3.4,3.3-8.7,3.3-12-0.1l-39-39.6c-3.3-3.3-3.3-8.4-0.1-11.8
	l0.1-0.1c3.4-3.6,9-3.6,12.3,0L170.5,51.7z"/>
<path class="st0" d="M155,239.6c-2.6,0-4.9-2-5.4-4.7c-1.6-12.3-8.1-21.2-17.6-24.6c-10.3-3.6-22.2-0.3-31.8,8.8
	c-8.6,8.1-17.4,11.2-26.1,9.2c-17.6-4.2-26.9-28.4-27.3-29.5c-1.1-2.7,0.3-5.9,3.2-6.9c2.7-1,5.9,0.3,6.9,3.2l0,0
	c2.1,5.6,9.7,20.6,19.7,22.9c4.9,1.1,10.4-1.1,16.3-6.6c12.7-11.9,28.7-16.1,42.8-11c13.5,4.8,22.4,17,24.7,33.3
	c0.4,3-1.6,5.7-4.6,6C155.5,239.5,155.2,239.6,155,239.6z"/>
</svg>
