<?xml version="1.0" encoding="utf-8"?>
<!-- Generator: Adobe Illustrator 23.1.0, SVG Export Plug-In . SVG Version: 6.00 Build 0)  -->
<svg version="1.1" id="Слой_1" xmlns="http://www.w3.org/2000/svg" xmlns:xlink="http://www.w3.org/1999/xlink" x="0px" y="0px"
	 width="250px" height="250px" viewBox="0 0 250 250" style="enable-background:new 0 0 250 250;" xml:space="preserve">
<style type="text/css">
	.st0{display:none;}
	.st1{display:inline;}
	.st2{fill:#F39DA7;}
	.st3{fill:#EFEFEF;}
	.st4{display:inline;fill:#F39DA7;}
	.st5{display:inline;fill:#EFEFEF;}
	.st6{display:inline;fill:#6379AA;}
	.st7{display:inline;fill:#FCDE63;}
	.st8{display:inline;fill:#DBDBDB;}
	.st9{fill:#DBDBDB;}
	.st10{fill:#FCDE63;}
	.st11{fill:#6379AA;}
	.st12{fill:#F48080;}
	.st13{fill:#FFFCDC;}
</style>
<g class="st0">
	<g class="st1">
		<g>
			<path class="st2" d="M154.5,32.9c1.7-0.7,2.3-2.4,3.3-3.8c0.9-1.2,2.2-2.1,3.5-3c1.4-1,2.9-2.1,4.1-3.3c1.2-1.2,2-2.9,3.5-3.8
				s3.4-1.4,5.1-1.9c1.9-0.5,3.5-0.5,5.4,0.1c1.6,0.6,3.2,1.5,4.7,2.4s2.9,1.8,4.2,2.9s2.4,2.3,3.2,3.7c1,1.7,1.4,3.6,2.4,5.3
				c1.8,3.1,4.9,5.1,7.6,7.3c2.6,2.2,4.8,5,6.1,8.2c0.7,1.7,1.2,3.4,0.5,5.2c-0.6,1.5-1.5,3-2.4,4.4c-4.2,6.6-10.2,11.7-17.3,15.1
				c-1.2,0.6-1.5,2.3-0.9,3.4c0.7,1.2,2.2,1.5,3.4,0.9c7-3.3,13.1-8.5,17.6-14.8c2.3-3.1,5.2-7.3,4.9-11.4
				c-0.4-4.1-2.7-8.2-5.2-11.3c-2.4-3-5.7-4.9-8.4-7.6c-1.4-1.4-2.1-3-2.8-4.9c-0.8-2-1.8-3.7-3.2-5.4c-2.6-3-6.2-5.1-9.7-6.9
				c-2-1-4.1-1.9-6.3-2.1c-2.3-0.3-4.5,0.3-6.7,1c-2.3,0.7-4.6,1.5-6.4,3.2c-1.6,1.5-2.7,3.3-4.4,4.7c-1.6,1.2-3.3,2.3-4.8,3.6
				c-0.8,0.8-1.6,1.6-2.2,2.6c-0.4,0.7-0.7,1.5-1.4,1.8c-1.2,0.5-1.5,2.4-0.9,3.4C151.8,33.3,153.2,33.4,154.5,32.9L154.5,32.9z"/>
		</g>
	</g>
	<g class="st1">
		<g>
			<path class="st3" d="M48.6,159.9c1.8-2.3,2.3-5.2,2.9-8c0.8-3.4,2.4-6.4,4-9.5c1.9-3.6,3.8-7.2,5.7-10.8c1.6-3.1,3.1-6.7,5.6-9.3
				c2.2-2.3-1.3-5.8-3.5-3.5c-2.6,2.7-4.2,6.1-5.9,9.4c-1.9,3.6-3.8,7.2-5.7,10.8c-1.8,3.3-3.8,6.7-4.7,10.4
				c-0.3,1.3-0.6,2.6-0.9,3.8c-0.2,0.7-0.3,1.3-0.6,2c-0.1,0.3-0.2,0.5-0.3,0.7c0,0.1-0.5,0.8-0.2,0.5c-0.8,1.1-1,2.5,0,3.5
				C45.9,160.8,47.7,161,48.6,159.9L48.6,159.9z"/>
		</g>
	</g>
	<g class="st1">
		<g>
			<path class="st3" d="M68.6,178.1c-0.3,0.2-0.5,0.2-0.1,0.2c0.3-0.1,0.7-0.2,1-0.3c0.6-0.1,1.2-0.2,1.8-0.4c1.5-0.4,3-1,4.4-1.5
				c3.6-1.3,7.1-3.1,10.7-4.7c6.8-3.1,13.5-6.3,19.3-11c1.1-0.8,0.9-2.7,0-3.5c-1-1-2.5-0.8-3.5,0c-5.7,4.6-12.5,7.6-19.1,10.6
				c-3.4,1.6-6.8,3.2-10.4,4.4c-0.4,0.1-0.9,0.3-1.3,0.4c0.1,0-1.6,0.6-0.8,0.3c-0.5,0.2-1.1,0.3-1.6,0.4c-1.4,0.3-2.7,0.6-3.8,1.6
				c-1,0.9-0.9,2.6,0,3.5C66,179.2,67.5,179,68.6,178.1L68.6,178.1z"/>
		</g>
	</g>
	<path class="st4" d="M141,41.4l42.4,41.9l10.8-11.2l12.3-12.6c6.2-6.5,6.2-16.6,0-23l-18.3-18.8c-6.5-6.7-17.1-6.7-23.5-0.1
		L152,30.3L141,41.4z"/>
	<polygon class="st5" points="45.1,154.7 63.4,118.6 105.1,160.9 69.2,179.1 	"/>
	<path class="st4" d="M45.1,154.7l-3.5,7.9c-2.6,6-1.3,13,3.5,17.4l0,0c4.6,4.3,11.4,5.4,17.1,2.6l7.1-3.5L45.1,154.7z"/>
	<polygon class="st6" points="63.4,118.6 105.1,160.9 183.4,83.4 141,41.4 	"/>
	<path class="st7" d="M172.1,49.7L193,70.3c3.4,3.4,3.4,8.7,0,12.1l0,0c-3.4,3.3-8.7,3.3-12-0.1l-39-39.6c-3.3-3.3-3.3-8.4-0.1-11.8
		l0.1-0.1c3.4-3.6,9-3.6,12.3,0L172.1,49.7z"/>
	<path class="st4" d="M156.6,237.6c-2.6,0-4.9-2-5.4-4.7c-1.6-12.3-8.1-21.2-17.6-24.6c-10.3-3.6-22.2-0.3-31.8,8.8
		c-8.6,8.1-17.4,11.2-26.1,9.2c-17.6-4.2-26.9-28.4-27.3-29.5c-1.1-2.7,0.3-5.9,3.2-6.9c2.7-1,5.9,0.3,6.9,3.2l0,0
		c2.1,5.6,9.7,20.6,19.7,22.9c4.9,1.1,10.4-1.1,16.3-6.6c12.7-11.9,28.7-16.1,42.8-11c13.5,4.8,22.4,17,24.7,33.3
		c0.4,3-1.6,5.7-4.6,6C157.2,237.5,156.9,237.6,156.6,237.6z"/>
</g>
<g class="st0">
	<path class="st6" d="M87.2,146.3l-48,41.5c-10.7,8.9-11.7,25-2.1,35l0,0c9.9,10.3,26.5,9.8,35.7-1.2l41-49.4L87.2,146.3z"/>
	<circle class="st7" cx="155.6" cy="101.5" r="81.8"/>
	<circle class="st8" cx="155.6" cy="101.5" r="60.5"/>
	<g class="st1">
		<path class="st3" d="M206.9,98.4c-0.7,8-3.2,15.8-7.1,23c-2,3.6-4.3,7-7,10.1s-5.7,6-9,8.6c-3.3,2.5-6.8,4.9-10.5,6.9
			s-7.8,3.3-12,4s-8.4,0.9-12.6,0.4c-4.2-0.5-8.2-1.5-12-3.3l0.1-0.8c4.1-0.5,7.9-0.9,11.7-1.6c3.8-0.7,7.4-1.5,10.9-2.6
			s7-2.2,10.5-3.5s6.9-2.8,10.1-4.9c3.2-2,6.1-4.4,8.9-7c2.8-2.6,5.3-5.5,7.5-8.6c2.3-3.1,4.2-6.4,5.8-10c1.6-3.5,2.9-7.2,3.9-11.1
			L206.9,98.4z"/>
	</g>
</g>
<g id="Слой_3" class="st0">
	<g class="st1">
		<g>
			<g>
				<g>
					<ellipse class="st9" cx="158.9" cy="94.2" rx="83.8" ry="83.8"/>
				</g>
			</g>
		</g>
		<g>
			<g>
				<path class="st10" d="M216,33l-17.4,4.3l-39.5,45.1c0,0-10.1,26.1-0.2,52.4c12.6,33.7,31.9,36.7,32.1,36.8
					c30.3-12.6,51.7-42.5,51.7-77.4C242.7,70,232.4,48.2,216,33z"/>
			</g>
		</g>
		<g>
			<g>
				<path class="st10" d="M127.6,46.4L101.4,54c0,0-13.6,15.8-10.9,54.7c3.1,44.8,24.3,56.5,25.5,57.3c11.4,6.8,24.5,11,38.5,11.7
					c-1.5-2.2-21.9-16.9-28.8-60C119.8,80.8,137.9,54,137.9,54L127.6,46.4z"/>
			</g>
		</g>
		<g>
			<g>
				<path class="st11" d="M217.1,99.6c22.7-17.3,21.5-30.7,21.5-31l0,0c0,0-2.3-8-7.7-17c-3.5-5.9-7.7-11.3-12.5-16.2l-38,22.6
					l-21.3,24.4c0,0-7.2,14.1-3.6,39.1C155.5,121.5,188.5,121.5,217.1,99.6z"/>
			</g>
		</g>
		<g>
			<g>
				<path class="st11" d="M159.1,10.4c-33.4,0-62.2,19.6-75.7,47.8c0.1,0,17.8-9,45.4-1.4c21.4,5.8,30.3,25.5,30.3,25.5
					s30.1-1.1,46.6-15.7C224,50.5,220,36.8,220,36.7C204.7,20.5,183.1,10.4,159.1,10.4z"/>
			</g>
		</g>
		<g>
			<g>
				<path class="st10" d="M173.1,20.3c-14-6.3-30.9-7.6-32.6-7.7c-14,3.2-26.6,9.8-37,19c4.2-0.9,27-5.6,51,6.2
					C177.4,49.1,190,75.9,190,75.9l0,0c5.7-2.2,11.2-5.2,15.7-9.2s7.7-7.8,9.9-11.4C215.6,55.3,195.4,30.3,173.1,20.3z"/>
			</g>
		</g>
		<g>
			<path class="st11" d="M211.1,140.3c-18.2,10.4-42.9,12.9-42.9,12.9l3.1,4.3c10,12.5,19.5,14,19.6,14.1
				c22.4-9.3,43.9-31.5,49.2-56.9C240.1,114.7,233.7,127.4,211.1,140.3z"/>
		</g>
	</g>
	<path class="st6" d="M36.5,182.4c-1.9,0-3.7-0.8-5-2.3c-2.4-2.8-2.2-7,0.6-9.4l35.2-31.1c2.8-2.4,7-2.2,9.4,0.6s2.2,7-0.6,9.4
		l-35.2,31.1C39.7,181.9,38.1,182.4,36.5,182.4z"/>
	<path class="st6" d="M90.1,217c-1.9,0-3.7-0.8-5-2.3c-2.4-2.8-2.2-7,0.6-9.4l21.7-19.2c2.8-2.4,7-2.2,9.4,0.6s2.2,7-0.6,9.4
		l-21.7,19.2C93.2,216.5,91.7,217,90.1,217z"/>
	<path class="st6" d="M15,240.6c-1.9,0-3.7-0.8-5-2.3c-2.4-2.8-2.2-7,0.6-9.4l75.1-66.3c2.8-2.4,7-2.2,9.4,0.6s2.2,7-0.6,9.4
		l-75.1,66.3C18.2,240.1,16.6,240.6,15,240.6z"/>
</g>
<g id="Слой_4">
	<g>
		<path class="st3" d="M57.9,26.6c-0.1-6.7-0.2-13.5-0.4-20.2c5.9,3.9,12.2,7.2,18.7,9.9c1.9,0.8,3.8,1.6,5.7,2.5
			c5.4,2.8,9.8,7.1,14,11.5c4.6,4.8,9.1,9.7,13.5,14.7c6.2,7.1,12.4,14.8,14.3,24c0.9,4.6,0.7,9.6,2.9,13.8
			c-1.7-2.4-3.5-4.6-5.6-6.7c-3.1-3.2-6.6-6-10.2-8.8c-9.7-7.7-19.4-15.4-29-23.1c-5.3-4.2-10.6-8.4-16.9-11c-2-0.8-4-1.5-5.7-2.8
			c-1.6-1.4-2.7-3.7-1.8-5.6"/>
	</g>
	<g>
		<path class="st3" d="M57.9,26.6c-0.1-6.7-0.2-13.5-0.4-20.2c5.9,3.9,12.2,7.2,18.7,9.9c1.9,0.8,3.8,1.6,5.7,2.5
			c5.4,2.8,9.8,7.1,14,11.5c4.6,4.8,9.1,9.7,13.5,14.7c6.2,7.1,12.4,14.8,14.3,24c0.9,4.6,0.7,9.6,2.9,13.8
			c-1.7-2.4-3.5-4.6-5.6-6.7c-3.1-3.2-6.6-6-10.2-8.8c-9.7-7.7-19.4-15.4-29-23.1c-5.3-4.2-10.6-8.4-16.9-11c-2-0.8-4-1.5-5.7-2.8
			c-1.6-1.4-2.7-3.7-1.8-5.6"/>
	</g>
	<path class="st9" d="M127.4,84c-0.1-2.5-1.1-4.6-2.5-6.7c-1.3-1.9-2.5-3.7-3.9-5.6c-2.8-3.8-5.8-7.3-9.4-10.4s-7.5-5.9-11.4-8.8
		c-3.9-3-7.9-6-11.9-8.9C80.9,38,73,32.8,64.6,28.3c-8.4-4.4-17.1-8.2-25.9-11.5c-1.1-0.4-2.3-1-3.5-1.3c-1.4-0.3-2.8-0.2-4,0.5
		c-1,0.6-1.9,1.4-2.8,2.1c-0.9,0.8-1.9,1.6-2.8,2.5c-3.4,3.3-6.2,7.2-8.6,11.3c0.8-0.1,1.6-0.2,2.5-0.3c-0.9-0.8-1.7-1.5-2.9-1.1
		c-1.4,0.5-1.7,2.1-1.2,3.3c0.8,1.9,2.4,3.7,3.7,5.3c2.8,3.2,6.2,5.9,9.7,8.2c3.6,2.4,7.4,4.6,11.1,6.8c4.3,2.5,8.5,5.1,12.8,7.8
		c8.5,5.4,16.9,11,25.1,16.8c4.1,2.9,8.2,5.9,12.2,8.9c3.8,2.8,7.5,6.1,12,7.6c4.7,1.6,10.1,0.9,15,0.4c1.3-0.1,2.6-0.3,3.9-0.5
		c1.1-0.2,2.4-0.2,3.3-0.9c1-0.7,1.4-1.8,1.8-2.9c0.4-1.2,0.8-2.5,1-3.7C127.3,86.5,127.5,85.3,127.4,84c0-2-3.2-2-3.1,0
		c0,2.3-0.6,4.6-1.3,6.8c-0.2,0.8-0.4,1.1-1.2,1.3c-1.1,0.2-2.3,0.3-3.4,0.5c-2.3,0.3-4.6,0.5-7,0.6c-2.2,0.1-4.4,0.2-6.5-0.2
		c-4.3-0.8-7.7-3.6-11.1-6.2c-3.6-2.7-7.3-5.4-11-8.1C68.1,68,52.7,58.3,37.1,49c-3.7-2.2-7.3-4.4-10.7-7.1
		c-1.7-1.4-3.3-2.8-4.7-4.4c-0.7-0.7-1.3-1.5-1.9-2.3c-0.3-0.4-0.6-0.9-0.9-1.3c-0.1-0.2-0.3-0.4-0.4-0.6c-0.1-0.1-0.2-0.3-0.3-0.4
		c-0.1-0.4-0.3-0.2-0.5,0.7c-0.3,0-0.6,0-0.8,0c-0.2,0-0.5-0.4-0.1-0.1c0.2,0.2,0.3,0.3,0.5,0.4c0.7,0.7,1.9,0.6,2.5-0.3
		c2-3.4,4.3-6.6,7-9.5c1.4-1.5,2.9-2.9,4.5-4.2c0.7-0.6,1.5-1.3,2.4-1.5c1-0.1,2.1,0.5,2.9,0.8C44.9,22.4,53.1,25.9,61,30
		c8.2,4.2,15.9,9,23.3,14.4c3.7,2.7,7.4,5.5,11,8.2c3.8,2.9,7.6,5.7,11.3,8.6c3.9,3,7.4,6.4,10.4,10.3c1.5,1.9,2.9,4,4.3,6
		s2.9,4,3,6.5C124.4,86,127.5,86,127.4,84z"/>
	<g>
		<path class="st9" d="M125.9,84c0-0.9-0.2-1.7-0.4-2.5c-0.5-1.4-1.3-2.6-2.1-3.8c-2.9-4.3-5.9-8.6-9.5-12.3c-2.8-2.8-6-5.3-9.2-7.7
			c-3.3-2.5-6.6-5-10-7.5c-6.5-4.9-13-9.8-19.8-14.1c-12.1-7.7-25.3-13.5-38.7-18.5c-0.9-0.3-1.8-0.7-2.7-0.6
			c-1,0.1-1.9,0.8-2.7,1.4C26,22,21.9,26.7,18.9,31.9c0,0-0.3,0.5-0.5,0.9c-0.4-0.3-0.7-0.7-0.7-0.7c-0.3-0.3-0.9,0-1,0.5
			c-0.1,0.4,0.1,0.8,0.4,1.2c5,8.3,13.8,13.3,22.1,18.2c18.8,11.1,37,23.4,54.5,36.6c2.9,2.2,5.9,4.5,9.4,5.5
			c2.8,0.8,5.7,0.7,8.6,0.6c3.4-0.2,6.7-0.5,10-1c0.6-0.1,1.3-0.2,1.8-0.6s0.8-1.2,1-1.8C125.2,88.9,126,86.4,125.9,84z"/>
	</g>
	<g>
		<path class="st3" d="M195.2,26c0.1-6.7,0.2-13.5,0.4-20.2c-5.9,3.9-12.2,7.2-18.7,9.9c-1.9,0.8-3.8,1.6-5.7,2.5
			c-5.4,2.8-9.8,7.1-14,11.5c-4.6,4.8-9.1,9.7-13.5,14.7c-6.2,7.1-12.4,14.8-14.3,24c-0.9,4.6-0.7,9.6-2.9,13.8
			c1.7-2.4,3.5-4.6,5.6-6.7c3.1-3.2,6.6-6,10.2-8.8c9.7-7.7,19.4-15.4,29-23.1c5.3-4.2,10.6-8.4,16.9-11c2-0.8,4-1.5,5.7-2.8
			s2.7-3.7,1.8-5.6"/>
	</g>
	<g>
		<path class="st3" d="M195.2,26c0.1-6.7,0.2-13.5,0.4-20.2c-5.9,3.9-12.2,7.2-18.7,9.9c-1.9,0.8-3.8,1.6-5.7,2.5
			c-5.4,2.8-9.8,7.1-14,11.5c-4.6,4.8-9.1,9.7-13.5,14.7c-6.2,7.1-12.4,14.8-14.3,24c-0.9,4.6-0.7,9.6-2.9,13.8
			c1.7-2.4,3.5-4.6,5.6-6.7c3.1-3.2,6.6-6,10.2-8.8c9.7-7.7,19.4-15.4,29-23.1c5.3-4.2,10.6-8.4,16.9-11c2-0.8,4-1.5,5.7-2.8
			s2.7-3.7,1.8-5.6"/>
	</g>
	<path class="st9" d="M128.8,83.4c0.1-2.3,1.3-4,2.5-5.8s2.5-3.6,3.7-5.3c2.6-3.6,5.6-6.8,9-9.7c3.5-2.9,7.3-5.6,10.9-8.4
		c3.7-2.8,7.5-5.7,11.2-8.5c7.4-5.5,15-10.6,23.1-14.9c7.9-4.2,16-7.8,24.3-11c1.2-0.5,2.3-0.9,3.5-1.3c1-0.4,2-0.9,3-0.4
		c1,0.4,1.8,1.3,2.6,2c0.9,0.7,1.7,1.5,2.6,2.3c3.2,3.2,5.8,6.7,8.1,10.6c0.5,0.9,1.7,1,2.5,0.3c0.2-0.1,0.3-0.3,0.5-0.4
		c0.3-0.3,0.2,0-0.1,0.1c-0.3,0-0.6,0-0.8,0c-0.2-0.3-0.3-0.6-0.5-0.9c0,0.1-0.1,0.2-0.2,0.3c-0.1,0.2-0.3,0.4-0.4,0.6
		c-0.3,0.4-0.5,0.8-0.8,1.2c-0.5,0.8-1.1,1.5-1.7,2.2c-1.2,1.4-2.6,2.7-4,4c-2.9,2.5-6,4.5-9.2,6.5c-7.5,4.6-15.1,9-22.5,13.7
		c-7.7,4.9-15.4,10.1-22.9,15.4c-3.8,2.7-7.5,5.4-11.3,8.2c-3.4,2.5-6.7,5.5-10.6,7.2c-2.2,1-4.6,1.2-7,1.2c-2.6,0-5.2-0.2-7.8-0.5
		c-1.3-0.1-2.6-0.3-3.8-0.5c-0.9-0.1-2,0-2.4-1c-0.5-1.1-0.7-2.3-1-3.5C129,86,128.8,84.7,128.8,83.4c0-2-3.1-2-3.1,0
		c0,2.6,0.6,5,1.4,7.5c0.4,1.1,0.8,2.2,1.8,2.9c1,0.7,2.2,0.8,3.3,0.9c2.6,0.4,5.2,0.6,7.9,0.8c2.5,0.2,5,0.3,7.4,0
		c2.5-0.3,4.8-1.1,6.9-2.3c2-1.1,3.9-2.5,5.7-3.9c4-3,8-6,12-8.9c8.2-5.9,16.5-11.5,25-16.9c4.2-2.7,8.5-5.4,12.8-8
		c3.9-2.3,7.8-4.6,11.7-7c3.6-2.3,7.1-4.8,10.2-7.7c1.5-1.5,2.9-3.1,4.2-4.8c0.6-0.8,1.3-1.7,1.7-2.7c0.5-1.3,0.2-2.8-1.2-3.3
		c-1.2-0.5-2.1,0.3-2.9,1.1c0.8,0.1,1.6,0.2,2.5,0.3c-2.1-3.6-4.6-7.1-7.5-10.1c-1.5-1.5-3-3-4.7-4.3c-0.9-0.7-1.8-1.4-2.9-1.9
		c-1.2-0.5-2.5-0.4-3.7,0c-2.2,0.7-4.3,1.6-6.4,2.5c-2.2,0.9-4.3,1.8-6.5,2.7c-4.3,1.8-8.6,3.8-12.8,5.9
		c-8.5,4.3-16.4,9.2-24.1,14.8c-4,2.9-7.9,5.8-11.8,8.8c-4,3-8,6-11.9,9.1c-4.1,3.2-7.6,6.8-10.8,11c-1.5,2-3,4.1-4.4,6.2
		c-1.6,2.3-2.8,4.5-2.9,7.4C125.6,85.4,128.7,85.4,128.8,83.4z"/>
	<g>
		<path class="st9" d="M127.2,83.4c0-0.9,0.2-1.7,0.4-2.5c0.5-1.4,1.3-2.6,2.1-3.8c2.9-4.3,5.9-8.6,9.5-12.3c2.8-2.8,6-5.3,9.2-7.7
			c3.3-2.5,6.6-5,10-7.5c6.5-4.9,13-9.8,19.8-14.1c12.1-7.7,25.3-13.5,38.7-18.5c0.9-0.3,1.8-0.7,2.7-0.6c1,0.1,1.9,0.8,2.7,1.4
			c4.7,3.7,8.8,8.3,11.8,13.5c0,0,0.3,0.5,0.5,0.9c0.4-0.3,0.7-0.7,0.7-0.7c0.3-0.3,0.9,0,1,0.5s-0.1,0.8-0.4,1.2
			c-5,8.3-13.8,13.3-22.1,18.2c-18.9,11.1-37.1,23.3-54.6,36.6c-2.9,2.2-5.9,4.5-9.4,5.5c-2.8,0.8-5.7,0.7-8.6,0.6
			c-3.4-0.2-6.7-0.5-10-1c-0.6-0.1-1.3-0.2-1.8-0.6s-0.8-1.2-1-1.8C127.9,88.3,127.2,85.8,127.2,83.4z"/>
	</g>
	<path class="st12" d="M12,27.7l97.5,54.5l33.7,0.6l94.5-53.4c1.3-0.8,3,0.2,3,1.7v155c0,3.5-2,6.8-5.1,8.5L143,244.2h-32.6
		L9.3,189.5V29.6C9.3,28.2,10.7,27.2,12,27.7L12,27.7z"/>
	<polygon class="st13" points="227.3,67.9 161.5,106.6 161.3,131.5 227.3,92.6 	"/>
	<rect x="110.7" y="99.7" class="st10" width="32.2" height="15.1"/>
	<rect x="110.5" y="213.1" class="st10" width="32.2" height="15.1"/>
	<path class="st13" d="M127,194.1c-2.4,0-4.4-2-4.4-4.4v-50.8c0-2.4,2-4.4,4.4-4.4c2.4,0,4.4,2,4.4,4.4v50.8
		C131.4,192.1,129.4,194.1,127,194.1z"/>
	<g>
		<g>
			<path class="st12" d="M9.1,166.3c-0.2,4-0.5,8-0.6,12c-0.1,4.3-0.3,9.3,1.5,13.3c1,2.1,3.1,3.7,4.8,5.1c2.6,2.1,5.5,3.6,8.4,5.2
				c7.1,3.9,14.3,7.8,21.4,11.7c6.9,3.8,13.8,7.7,20.8,11.2c3.6,1.8,7.2,3.4,10.9,4.9c3.5,1.4,7.1,2.4,10.6,3.6
				c3.4,1.1,6.7,2.5,9.9,4.3c3,1.7,5.9,3.7,8.9,5.3c3.1,1.7,6.4,3.1,9.9,3.7c3.9,0.7,7.9,0.8,11.9,0.8c7.9,0.1,16.4-0.1,23.2-4.9
				c6.5-4.6,11-11.8,15.7-18.1c0.8-1.1,0.2-2.8-0.9-3.4c-1.3-0.7-2.6-0.2-3.4,0.9c-4,5.3-7.7,11.2-12.8,15.4c-5.1,4.3-11.9,5-18.3,5
				c-6.9,0.1-14.2,0.3-20.6-2.7c-6.1-2.9-11.5-7.2-17.8-9.7c-3.4-1.4-7-2.4-10.6-3.6c-3.4-1.1-6.6-2.4-9.9-3.9
				c-6.8-3.1-13.3-6.8-19.8-10.4c-6.8-3.8-13.7-7.5-20.5-11.3c-5.7-3.1-11.8-5.7-16.4-10.4c-0.2-0.2-0.4-0.4-0.6-0.6
				c-0.1-0.1-0.2-0.3-0.3-0.4c0.2,0.3,0.3,0.4,0.1,0.2c0-0.1-0.2-0.3-0.2-0.4c-0.3-0.4,0.1,0.4,0,0c-0.3-0.9-0.5-1.9-0.7-2.9
				c0,0.1,0.1,0.4,0-0.1c0-0.3-0.1-0.7-0.1-1c-0.1-0.6-0.1-1.3-0.1-1.9c-0.1-1.3-0.1-2.6-0.1-3.8c0-4.4,0.4-8.8,0.6-13.2
				C14.3,163,9.3,163.1,9.1,166.3L9.1,166.3z"/>
		</g>
	</g>
	<g>
		<g>
			<path class="st12" d="M147.1,84.8c-0.4,0.9,0.1-0.1,0.2-0.3c0.1-0.1,0.2-0.3,0.3-0.4s0.1-0.1,0.2-0.2c0.2-0.3-0.4,0.5-0.1,0.1
				c0.6-0.6,1.2-1.3,1.8-1.9c0.8-0.7,1.6-1.4,2.4-2.1c0.1-0.1,0.2-0.2,0.4-0.3c0.3-0.2-0.5,0.4,0,0c0.3-0.2,0.5-0.4,0.8-0.6
				c0.5-0.4,1.1-0.8,1.6-1.2c5.1-3.6,10.5-6.8,16-9.8c11.6-6.5,23.6-12.4,35.7-18c3.2-1.5,6.5-3,9.7-4.4c0.2-0.1,0.3-0.1,0.5-0.2
				c0.1,0,0.1,0,0.2-0.1c-1.2,0.6-0.1,0,0.2-0.1c0.5-0.2,0.9-0.4,1.4-0.6c2.4-1,4.8-2.1,7.1-3.3c3.4-1.7,6.6-3.7,9.6-6
				c0.8-0.6,1.6-1.2,2.3-1.8c0.4-0.3,0.8-0.6,1.1-0.9c0,0,0.3-0.3,0.2-0.1c-0.5,0.1-0.6,0.1-0.3,0.1c0.2,0,0.2,0,0.1,0l-0.1-0.1l0,0
				c-0.1-0.2-0.1-0.1,0,0.4c0,0.7,0,1.5,0,2.2c0,1.7,0,3.5,0,5.2c-0.1,6.4-0.4,12.8-0.8,19.2c-0.8,12.9-2,25.8-2.3,38.7
				c-0.2,6.5,0.1,12.9,0.1,19.3c0,6.3-1.5,12.4-1.7,18.6c-0.3,12.3,2.9,24.3,3,36.5c0,2.8-0.1,5.7-0.5,8.5c-0.2,1.3,0.3,2.7,1.7,3.1
				c1.2,0.3,2.9-0.4,3.1-1.7c1.8-12.6-1-25-2.1-37.6c-0.3-3.2-0.4-6.3-0.3-9.5c0.1-3.2,0.6-6.3,1-9.5c0.9-6.5,0.5-13,0.4-19.6
				c-0.1-13.3,1-26.6,1.9-39.9c0.5-6.6,0.9-13.1,1.1-19.7c0.1-3.5,0.2-6.9,0.2-10.4c0-3,0.5-6.6-2.7-8.2c-1.2-0.6-2.7-0.7-4-0.2
				c-1.1,0.4-2,1.3-2.9,2.1c-1.3,1.1-2.5,1.9-4,3c-3.7,2.5-7.7,4.5-11.7,6.3c-3.5,1.5-7,3-10.4,4.6c-11.8,5.4-23.5,11.1-34.9,17.3
				c-6,3.2-12,6.6-17.7,10.3c-4.1,2.7-8.5,5.5-11.4,9.5c-0.5,0.7-0.9,1.4-1.2,2.2c-0.5,1.2,0.6,2.7,1.7,3.1
				C145.4,86.9,146.5,86,147.1,84.8L147.1,84.8z"/>
		</g>
	</g>
	<g>
		<g>
			<path class="st10" d="M138.9,111.8C139,111.9,139,111.9,138.9,111.8c0.3-0.2,0.6-0.5,0.9-0.8c0.6,0,0.6,0,0.2,0c-0.3,0-0.7,0-1,0
				c-0.6,0-1.2,0-1.7,0c-1.2,0-2.5,0-3.7,0c-2.3,0-4.6,0-6.9-0.1c-2.3,0-4.6,0-6.9-0.1c-1.2,0-2.3,0-3.5,0c-1,0-2.6,0.2-3.5-0.1
				c0.4,0.2,0.7,0.4,1.1,0.6c-0.1-0.1-0.2-0.2-0.2-0.3c0.2,0.4,0.4,0.7,0.6,1.1c-1.3-3.7-1.3-7.9-0.4-11.6c-0.8,0.6-1.6,1.2-2.4,1.8
				c6.9-0.5,13.8-0.9,20.7-1.4c1.6-0.1,3.3-0.2,4.9-0.3c0.4,0,0.9,0,1.3-0.1c0.1,0,0.2,0,0.3,0c-0.7-0.9-1-1-0.9-0.5
				c-0.1,0.6,0.2,1.6,0.3,2.2c0.4,3.4,0.7,6.8,0.7,10.2c-0.1,3.2,4.9,3.2,5,0c0.1-3.9-0.3-7.8-0.8-11.6c-0.3-1.9-0.4-3.9-2.4-4.9
				c-1.6-0.8-3.8-0.4-5.5-0.2c-7.9,0.5-15.8,1-23.7,1.6c-1.1,0.1-2.1,0.7-2.4,1.8c-1,4-1.1,8.1-0.2,12.2c0.5,2.3,1.2,4.2,3.9,4.4
				c2.2,0.1,4.5,0,6.7,0.1c4.3,0,8.6,0.1,12.9,0.1c2.2,0,4.3,0,6.5,0.1c2.1,0,4.6-0.2,5-2.8c0.2-1.3-0.3-2.7-1.7-3.1
				C140.8,109.8,139.2,110.5,138.9,111.8z"/>
		</g>
	</g>
	<g>
		<g>
			<path class="st10" d="M108.9,226.7c0.4,2.5,2.7,2.8,4.7,2.8c2.2,0,4.3,0,6.5-0.1c4.4,0,8.8-0.1,13.1-0.1c2.1,0,4.3,0,6.5-0.1
				c1.2,0,2.1-0.3,2.9-1.1c0.7-0.8,0.9-2,1.2-3c0.9-4.1,0.8-8.3-0.1-12.4c-0.3-1.1-1.3-1.8-2.4-1.8c-7.9-0.5-15.8-1-23.7-1.6
				c-1.7-0.1-3.9-0.6-5.5,0.2c-1.9,1-2.1,2.9-2.4,4.9c-0.5,3.8-0.9,7.7-0.8,11.6c0.1,3.2,5.1,3.2,5,0c-0.1-3.3,0.2-6.7,0.6-10
				c0.1-0.6,0.5-1.7,0.3-2.2c0.2-0.5,0.1-0.5-0.4-0.1c-0.6,0.3-0.6,0.4-0.1,0.3c0.3,0.1,0.8,0,1.1,0.1c1.7,0.1,3.5,0.2,5.2,0.3
				c6.9,0.5,13.8,0.9,20.7,1.4c-0.8-0.6-1.6-1.2-2.4-1.8c0.9,3.7,1,8-0.4,11.6c0.2-0.4,0.4-0.7,0.6-1.1c-0.1,0.1-0.2,0.2-0.2,0.3
				c0.4-0.2,0.7-0.4,1.1-0.6c-0.8,0.3-2.3,0.1-3.2,0.1c-1.2,0-2.5,0-3.7,0c-2.3,0-4.6,0-6.9,0.1c-2.3,0-4.6,0-6.9,0.1
				c-1.2,0-2.3,0-3.5,0c-0.7,0-1.3,0-2,0c-0.3,0-0.7,0-1,0c-0.5,0-0.4,0,0.2,0c0.3,0.3,0.6,0.6,0.9,0.9v-0.1
				c-0.2-1.3-1.9-2.1-3.1-1.7C109.2,224,108.6,225.3,108.9,226.7z"/>
		</g>
	</g>
</g>
</svg>
