<?xml version="1.0" encoding="utf-8"?>
<!-- Generator: Adobe Illustrator 23.1.0, SVG Export Plug-In . SVG Version: 6.00 Build 0)  -->
<svg version="1.1" id="Слой_1" xmlns="http://www.w3.org/2000/svg" xmlns:xlink="http://www.w3.org/1999/xlink" x="0px" y="0px"
	 width="250px" height="250px" viewBox="0 0 250 250" style="enable-background:new 0 0 250 250;" xml:space="preserve">
<style type="text/css">
	.st0{display:none;}
	.st1{display:inline;}
	.st2{fill:#F39DA7;}
	.st3{fill:#EFEFEF;}
	.st4{display:inline;fill:#F39DA7;}
	.st5{display:inline;fill:#EFEFEF;}
	.st6{display:inline;fill:#6379AA;}
	.st7{display:inline;fill:#FCDE63;}
	.st8{fill:#6379AA;}
	.st9{fill:#FCDE63;}
	.st10{fill:#DBDBDB;}
</style>
<g class="st0">
	<g class="st1">
		<g>
			<path class="st2" d="M154.5,32.9c1.7-0.7,2.3-2.4,3.3-3.8c0.9-1.2,2.2-2.1,3.5-3c1.4-1,2.9-2.1,4.1-3.3c1.2-1.2,2-2.9,3.5-3.8
				s3.4-1.4,5.1-1.9c1.9-0.5,3.5-0.5,5.4,0.1c1.6,0.6,3.2,1.5,4.7,2.4s2.9,1.8,4.2,2.9s2.4,2.3,3.2,3.7c1,1.7,1.4,3.6,2.4,5.3
				c1.8,3.1,4.9,5.1,7.6,7.3c2.6,2.2,4.8,5,6.1,8.2c0.7,1.7,1.2,3.4,0.5,5.2c-0.6,1.5-1.5,3-2.4,4.4c-4.2,6.6-10.2,11.7-17.3,15.1
				c-1.2,0.6-1.5,2.3-0.9,3.4c0.7,1.2,2.2,1.5,3.4,0.9c7-3.3,13.1-8.5,17.6-14.8c2.3-3.1,5.2-7.3,4.9-11.4
				c-0.4-4.1-2.7-8.2-5.2-11.3c-2.4-3-5.7-4.9-8.4-7.6c-1.4-1.4-2.1-3-2.8-4.9c-0.8-2-1.8-3.7-3.2-5.4c-2.6-3-6.2-5.1-9.7-6.9
				c-2-1-4.1-1.9-6.3-2.1c-2.3-0.3-4.5,0.3-6.7,1c-2.3,0.7-4.6,1.5-6.4,3.2c-1.6,1.5-2.7,3.3-4.4,4.7c-1.6,1.2-3.3,2.3-4.8,3.6
				c-0.8,0.8-1.6,1.6-2.2,2.6c-0.4,0.7-0.7,1.5-1.4,1.8c-1.2,0.5-1.5,2.4-0.9,3.4C151.8,33.3,153.2,33.4,154.5,32.9L154.5,32.9z"/>
		</g>
	</g>
	<g class="st1">
		<g>
			<path class="st3" d="M48.6,159.9c1.8-2.3,2.3-5.2,2.9-8c0.8-3.4,2.4-6.4,4-9.5c1.9-3.6,3.8-7.2,5.7-10.8c1.6-3.1,3.1-6.7,5.6-9.3
				c2.2-2.3-1.3-5.8-3.5-3.5c-2.6,2.7-4.2,6.1-5.9,9.4c-1.9,3.6-3.8,7.2-5.7,10.8c-1.8,3.3-3.8,6.7-4.7,10.4
				c-0.3,1.3-0.6,2.6-0.9,3.8c-0.2,0.7-0.3,1.3-0.6,2c-0.1,0.3-0.2,0.5-0.3,0.7c0,0.1-0.5,0.8-0.2,0.5c-0.8,1.1-1,2.5,0,3.5
				C45.9,160.8,47.7,161,48.6,159.9L48.6,159.9z"/>
		</g>
	</g>
	<g class="st1">
		<g>
			<path class="st3" d="M68.6,178.1c-0.3,0.2-0.5,0.2-0.1,0.2c0.3-0.1,0.7-0.2,1-0.3c0.6-0.1,1.2-0.2,1.8-0.4c1.5-0.4,3-1,4.4-1.5
				c3.6-1.3,7.1-3.1,10.7-4.7c6.8-3.1,13.5-6.3,19.3-11c1.1-0.8,0.9-2.7,0-3.5c-1-1-2.5-0.8-3.5,0c-5.7,4.6-12.5,7.6-19.1,10.6
				c-3.4,1.6-6.8,3.2-10.4,4.4c-0.4,0.1-0.9,0.3-1.3,0.4c0.1,0-1.6,0.6-0.8,0.3c-0.5,0.2-1.1,0.3-1.6,0.4c-1.4,0.3-2.7,0.6-3.8,1.6
				c-1,0.9-0.9,2.6,0,3.5C66,179.2,67.5,179,68.6,178.1L68.6,178.1z"/>
		</g>
	</g>
	<path class="st4" d="M141,41.4l42.4,41.9l10.8-11.2l12.3-12.6c6.2-6.5,6.2-16.6,0-23l-18.3-18.8c-6.5-6.7-17.1-6.7-23.5-0.1
		L152,30.3L141,41.4z"/>
	<polygon class="st5" points="45.1,154.7 63.4,118.6 105.1,160.9 69.2,179.1 	"/>
	<path class="st4" d="M45.1,154.7l-3.5,7.9c-2.6,6-1.3,13,3.5,17.4l0,0c4.6,4.3,11.4,5.4,17.1,2.6l7.1-3.5L45.1,154.7z"/>
	<polygon class="st6" points="63.4,118.6 105.1,160.9 183.4,83.4 141,41.4 	"/>
	<path class="st7" d="M172.1,49.7L193,70.3c3.4,3.4,3.4,8.7,0,12.1l0,0c-3.4,3.3-8.7,3.3-12-0.1l-39-39.6c-3.3-3.3-3.3-8.4-0.1-11.8
		l0.1-0.1c3.4-3.6,9-3.6,12.3,0L172.1,49.7z"/>
	<path class="st4" d="M156.6,237.6c-2.6,0-4.9-2-5.4-4.7c-1.6-12.3-8.1-21.2-17.6-24.6c-10.3-3.6-22.2-0.3-31.8,8.8
		c-8.6,8.1-17.4,11.2-26.1,9.2c-17.6-4.2-26.9-28.4-27.3-29.5c-1.1-2.7,0.3-5.9,3.2-6.9c2.7-1,5.9,0.3,6.9,3.2l0,0
		c2.1,5.6,9.7,20.6,19.7,22.9c4.9,1.1,10.4-1.1,16.3-6.6c12.7-11.9,28.7-16.1,42.8-11c13.5,4.8,22.4,17,24.7,33.3
		c0.4,3-1.6,5.7-4.6,6C157.2,237.5,156.9,237.6,156.6,237.6z"/>
</g>
<g>
	<path class="st8" d="M87.2,146.3l-48,41.5c-10.7,8.9-11.7,25-2.1,35l0,0c9.9,10.3,26.5,9.8,35.7-1.2l41-49.4L87.2,146.3z"/>
	<circle class="st9" cx="155.6" cy="101.5" r="81.8"/>
	<circle class="st10" cx="155.6" cy="101.5" r="60.5"/>
	<g>
		<path class="st3" d="M206.9,98.4c-0.7,8-3.2,15.8-7.1,23c-2,3.6-4.3,7-7,10.1s-5.7,6-9,8.6c-3.3,2.5-6.8,4.9-10.5,6.9
			s-7.8,3.3-12,4s-8.4,0.9-12.6,0.4c-4.2-0.5-8.2-1.5-12-3.3l0.1-0.8c4.1-0.5,7.9-0.9,11.7-1.6c3.8-0.7,7.4-1.5,10.9-2.6
			s7-2.2,10.5-3.5s6.9-2.8,10.1-4.9c3.2-2,6.1-4.4,8.9-7c2.8-2.6,5.3-5.5,7.5-8.6c2.3-3.1,4.2-6.4,5.8-10c1.6-3.5,2.9-7.2,3.9-11.1
			L206.9,98.4z"/>
	</g>
</g>
</svg>
